<svg width="480" height="480" viewBox="0 0 480 480" fill="none" xmlns="http://www.w3.org/2000/svg">
<rect x="0.25" y="0.25" width="479.5" height="479.5" rx="17.75" fill="white" stroke="#C4C4C4" stroke-width="0.5"/>
<path d="M185.652 309.016H178.02L176.556 313H174.78L180.9 296.44H182.796L188.892 313H187.116L185.652 309.016ZM185.148 307.624L181.836 298.552L178.524 307.624H185.148ZM190.82 306.424C190.82 305.08 191.092 303.904 191.636 302.896C192.18 301.872 192.924 301.088 193.868 300.544C194.828 299.984 195.908 299.704 197.108 299.704C198.26 299.704 199.3 299.984 200.228 300.544C201.156 301.104 201.836 301.832 202.268 302.728V295.24H203.948V313H202.268V310.072C201.868 310.984 201.212 311.736 200.3 312.328C199.388 312.904 198.316 313.192 197.084 313.192C195.884 313.192 194.804 312.912 193.844 312.352C192.9 311.792 192.156 311 191.612 309.976C191.084 308.952 190.82 307.768 190.82 306.424ZM202.268 306.448C202.268 305.392 202.052 304.464 201.62 303.664C201.188 302.864 200.596 302.248 199.844 301.816C199.108 301.384 198.292 301.168 197.396 301.168C196.468 301.168 195.636 301.376 194.9 301.792C194.164 302.208 193.58 302.816 193.148 303.616C192.732 304.4 192.524 305.336 192.524 306.424C192.524 307.496 192.732 308.44 193.148 309.256C193.58 310.056 194.164 310.672 194.9 311.104C195.636 311.52 196.468 311.728 197.396 311.728C198.292 311.728 199.108 311.512 199.844 311.08C200.596 310.648 201.188 310.032 201.62 309.232C202.052 308.432 202.268 307.504 202.268 306.448ZM207.015 306.424C207.015 305.08 207.287 303.904 207.831 302.896C208.375 301.872 209.119 301.088 210.063 300.544C211.023 299.984 212.103 299.704 213.303 299.704C214.455 299.704 215.495 299.984 216.423 300.544C217.351 301.104 218.031 301.832 218.463 302.728V295.24H220.143V313H218.463V310.072C218.063 310.984 217.407 311.736 216.495 312.328C215.583 312.904 214.511 313.192 213.279 313.192C212.079 313.192 210.999 312.912 210.039 312.352C209.095 311.792 208.351 311 207.807 309.976C207.279 308.952 207.015 307.768 207.015 306.424ZM218.463 306.448C218.463 305.392 218.247 304.464 217.815 303.664C217.383 302.864 216.791 302.248 216.039 301.816C215.303 301.384 214.487 301.168 213.591 301.168C212.663 301.168 211.831 301.376 211.095 301.792C210.359 302.208 209.775 302.816 209.343 303.616C208.927 304.4 208.719 305.336 208.719 306.424C208.719 307.496 208.927 308.44 209.343 309.256C209.775 310.056 210.359 310.672 211.095 311.104C211.831 311.52 212.663 311.728 213.591 311.728C214.487 311.728 215.303 311.512 216.039 311.08C216.791 310.648 217.383 310.032 217.815 309.232C218.247 308.432 218.463 307.504 218.463 306.448ZM231.405 297.424C231.069 297.424 230.781 297.304 230.541 297.064C230.301 296.824 230.181 296.528 230.181 296.176C230.181 295.824 230.301 295.536 230.541 295.312C230.781 295.072 231.069 294.952 231.405 294.952C231.741 294.952 232.029 295.072 232.269 295.312C232.509 295.536 232.629 295.824 232.629 296.176C232.629 296.528 232.509 296.824 232.269 297.064C232.029 297.304 231.741 297.424 231.405 297.424ZM232.245 299.896V313H230.565V299.896H232.245ZM251.649 299.656C253.185 299.656 254.433 300.144 255.393 301.12C256.369 302.08 256.857 303.48 256.857 305.32V313H255.201V305.512C255.201 304.088 254.857 303 254.169 302.248C253.481 301.496 252.545 301.12 251.361 301.12C250.129 301.12 249.145 301.528 248.409 302.344C247.673 303.16 247.305 304.344 247.305 305.896V313H245.649V305.512C245.649 304.088 245.305 303 244.617 302.248C243.929 301.496 242.985 301.12 241.785 301.12C240.553 301.12 239.569 301.528 238.833 302.344C238.097 303.16 237.729 304.344 237.729 305.896V313H236.049V299.896H237.729V302.152C238.145 301.336 238.737 300.72 239.505 300.304C240.273 299.872 241.129 299.656 242.073 299.656C243.209 299.656 244.201 299.928 245.049 300.472C245.913 301.016 246.537 301.816 246.921 302.872C247.273 301.832 247.873 301.04 248.721 300.496C249.585 299.936 250.561 299.656 251.649 299.656ZM259.82 306.424C259.82 305.08 260.084 303.904 260.612 302.896C261.156 301.872 261.9 301.088 262.844 300.544C263.804 299.984 264.884 299.704 266.084 299.704C267.332 299.704 268.404 299.992 269.3 300.568C270.212 301.144 270.868 301.88 271.268 302.776V299.896H272.948V313H271.268V310.096C270.852 310.992 270.188 311.736 269.276 312.328C268.38 312.904 267.308 313.192 266.06 313.192C264.876 313.192 263.804 312.912 262.844 312.352C261.9 311.792 261.156 311 260.612 309.976C260.084 308.952 259.82 307.768 259.82 306.424ZM271.268 306.448C271.268 305.392 271.052 304.464 270.62 303.664C270.188 302.864 269.596 302.248 268.844 301.816C268.108 301.384 267.292 301.168 266.396 301.168C265.468 301.168 264.636 301.376 263.9 301.792C263.164 302.208 262.58 302.816 262.148 303.616C261.732 304.4 261.524 305.336 261.524 306.424C261.524 307.496 261.732 308.44 262.148 309.256C262.58 310.056 263.164 310.672 263.9 311.104C264.636 311.52 265.468 311.728 266.396 311.728C267.292 311.728 268.108 311.512 268.844 311.08C269.596 310.648 270.188 310.032 270.62 309.232C271.052 308.432 271.268 307.504 271.268 306.448ZM282.279 299.704C283.511 299.704 284.583 299.992 285.495 300.568C286.407 301.144 287.063 301.872 287.463 302.752V299.896H289.143V313.336C289.143 314.536 288.879 315.6 288.351 316.528C287.839 317.456 287.119 318.168 286.191 318.664C285.263 319.176 284.207 319.432 283.023 319.432C281.343 319.432 279.943 319.032 278.823 318.232C277.719 317.432 277.031 316.344 276.759 314.968H278.415C278.703 315.88 279.247 316.608 280.047 317.152C280.863 317.696 281.855 317.968 283.023 317.968C283.871 317.968 284.631 317.784 285.303 317.416C285.975 317.064 286.503 316.536 286.887 315.832C287.271 315.128 287.463 314.296 287.463 313.336V310.096C287.047 310.992 286.383 311.736 285.471 312.328C284.575 312.904 283.511 313.192 282.279 313.192C281.079 313.192 279.999 312.912 279.039 312.352C278.095 311.792 277.351 311 276.807 309.976C276.279 308.952 276.015 307.768 276.015 306.424C276.015 305.08 276.279 303.904 276.807 302.896C277.351 301.872 278.095 301.088 279.039 300.544C279.999 299.984 281.079 299.704 282.279 299.704ZM287.463 306.448C287.463 305.392 287.247 304.464 286.815 303.664C286.383 302.864 285.791 302.248 285.039 301.816C284.303 301.384 283.487 301.168 282.591 301.168C281.663 301.168 280.831 301.376 280.095 301.792C279.359 302.208 278.775 302.816 278.343 303.616C277.927 304.4 277.719 305.336 277.719 306.424C277.719 307.496 277.927 308.44 278.343 309.256C278.775 310.056 279.359 310.672 280.095 311.104C280.831 311.52 281.663 311.728 282.591 311.728C283.487 311.728 284.303 311.512 285.039 311.08C285.791 310.648 286.383 310.032 286.815 309.232C287.247 308.432 287.463 307.504 287.463 306.448ZM304.835 305.776C304.835 306.352 304.819 306.792 304.787 307.096H293.915C293.963 308.088 294.203 308.936 294.635 309.64C295.067 310.344 295.635 310.88 296.339 311.248C297.043 311.6 297.811 311.776 298.643 311.776C299.731 311.776 300.643 311.512 301.379 310.984C302.131 310.456 302.627 309.744 302.867 308.848H304.643C304.323 310.128 303.635 311.176 302.579 311.992C301.539 312.792 300.227 313.192 298.643 313.192C297.411 313.192 296.307 312.92 295.331 312.376C294.355 311.816 293.587 311.032 293.027 310.024C292.483 309 292.211 307.808 292.211 306.448C292.211 305.088 292.483 303.896 293.027 302.872C293.571 301.848 294.331 301.064 295.307 300.52C296.283 299.976 297.395 299.704 298.643 299.704C299.891 299.704 300.979 299.976 301.907 300.52C302.851 301.064 303.571 301.8 304.067 302.728C304.579 303.64 304.835 304.656 304.835 305.776ZM303.131 305.728C303.147 304.752 302.947 303.92 302.531 303.232C302.131 302.544 301.579 302.024 300.875 301.672C300.171 301.32 299.403 301.144 298.571 301.144C297.323 301.144 296.259 301.544 295.379 302.344C294.499 303.144 294.011 304.272 293.915 305.728H303.131Z" fill="#858585"/>
<path d="M240.5 254.833V218.5M240.5 218.5V182.167M240.5 218.5H276.833M240.5 218.5H204.167" stroke="black" stroke-width="2" stroke-linecap="round"/>
</svg>
