<svg width="611" height="536" viewBox="0 0 611 536" fill="none" xmlns="http://www.w3.org/2000/svg">
<g opacity="0.8">
<path opacity="0.8" d="M266.64 133.866C266.64 142.026 265.909 150.023 264.488 157.818C261.078 176.452 253.81 193.747 243.497 208.809C219.542 243.804 179.305 266.782 133.709 266.782C79.4644 266.782 32.7719 234.263 12.1054 187.657C9.38508 181.527 7.11136 175.113 5.32486 168.536C2.32031 157.493 0.736816 145.842 0.736816 133.825C0.736816 124.122 1.79247 114.663 3.74137 105.528C3.74137 105.407 3.78198 105.325 3.82258 105.204C9.34447 79.9925 22.0123 57.5014 39.593 39.882C44.5871 34.8885 49.9466 30.301 55.7121 26.1194C58.4324 24.1301 61.2746 22.2626 64.1573 20.4763C84.3772 8.01285 108.211 0.867676 133.709 0.867676C137.079 0.867676 140.449 0.989466 143.738 1.23305C148.407 1.55783 153.035 2.16681 157.542 2.97876C176.625 6.42956 194.247 13.9401 209.554 24.6173C219.095 31.2347 227.703 39.1106 235.214 47.9609C239.153 52.5891 242.766 57.542 246.055 62.6979C248.085 65.9051 249.993 69.2341 251.739 72.6037C255.962 80.7638 259.372 89.4111 261.89 98.4644C265.016 109.791 266.64 121.646 266.64 133.866Z" fill="#D7E5FF"/>
<g opacity="0.8">
<path opacity="0.8" d="M88.5594 74.3491C83.2405 82.7528 90.7925 97.3273 74.8765 93.3487C58.9605 89.3702 49.2159 87.5839 48.3633 96.4342C47.4701 105.284 60.3003 105.284 60.3003 114.581C60.3003 123.878 54.5348 126.923 45.7242 122.538C36.8729 118.113 34.3556 111.699 24.0426 115.677C13.7703 119.656 7.80177 117.017 5.48744 109.06C5.08142 107.68 4.51299 106.543 3.82275 105.569C3.82275 105.447 3.86336 105.366 3.90396 105.244C9.42585 80.0327 22.0937 57.5416 39.6744 39.9223C44.6685 34.9288 50.028 30.3412 55.7935 26.1597C58.5138 24.1704 61.356 22.3029 64.2387 20.5166C68.3801 20.679 73.3336 22.2217 77.5562 27.4588C86.8541 38.9479 93.0256 33.2237 90.8331 46.4585C88.6 59.7339 92.173 61.4796 99.6844 61.033C107.196 60.5865 116.047 60.5865 116.94 66.3513C117.752 72.1568 93.8783 65.9454 88.5594 74.3491Z" fill="#AEC3FF"/>
<path opacity="0.8" d="M89.4934 135.733C89.4934 135.733 81.4542 145.071 74.5518 139.712C67.6495 134.353 69.7202 130.983 59.6102 134.353C49.5003 137.722 45.0341 132.161 39.837 136.383C34.6399 140.605 38.8626 141.133 35.249 150.064C31.676 158.996 24.2458 160.457 29.9707 169.389C35.6956 178.32 46.3739 173.733 51.977 178.442C57.5801 183.151 55.753 187.779 62.7772 189.728C69.8014 191.636 76.5007 184.816 76.6225 193.301C76.7443 201.785 74.0646 210.027 82.7535 217.903C91.4829 225.779 89.8588 227.565 98.7913 231.381C107.764 235.238 118.483 231.747 117.103 226.388C115.763 220.988 104.191 219.933 103.948 213.843C103.704 207.753 109.876 208.281 107.399 200.446C104.922 192.61 111.825 188.388 109.47 183.354C107.155 178.279 93.919 176.574 95.4619 171.459C97.0048 166.384 108.982 170.688 109.632 159.929C110.282 149.171 103.014 145.314 104.07 134.799C105.247 124.244 90.7115 129.278 89.4934 135.733Z" fill="#AEC3FF"/>
<path opacity="0.8" d="M266.641 133.865C266.641 142.025 265.91 150.023 264.489 157.818C261.078 176.452 253.81 193.747 243.497 208.809C239.965 209.945 236.392 209.945 232.86 208.524C216.294 201.907 228.556 184.003 235.174 175.031C241.792 166.1 224.902 170.078 212.64 161.756C200.378 153.474 213.98 131.267 201.352 134.921C188.766 138.575 173.499 143.203 166.191 130.942C158.883 118.682 172.809 116.693 166.516 106.421C160.222 96.1501 170.17 90.1823 182.757 89.1673C195.343 88.193 193.679 79.2209 209.27 77.8812C224.861 76.5415 224.536 96.4343 241.752 95.1352C259.007 93.7955 258.236 97.7741 258.236 97.7741C259.495 97.7335 260.672 98.0176 261.85 98.5454C265.017 109.791 266.641 121.645 266.641 133.865Z" fill="#AEC3FF"/>
<path opacity="0.8" d="M251.78 72.6846C237.448 79.6674 231.682 60.7083 219.42 66.392C207.077 72.1569 209.229 61.0737 199.525 54.0097C189.781 46.9457 170.332 59.7746 171.226 48.6914C172.119 37.6489 186.695 40.7343 189.781 31.884C192.867 23.0337 207.037 25.2666 207.037 25.2666C207.849 24.9418 208.701 24.7794 209.595 24.6982C219.136 31.3157 227.744 39.1916 235.255 48.0419C239.194 52.67 242.807 57.6229 246.096 62.7788C248.126 65.986 250.034 69.315 251.78 72.6846Z" fill="#AEC3FF"/>
<path opacity="0.8" d="M130.989 34.5636C130.989 34.5636 138.5 23.724 126.563 20.5168C114.626 17.3096 114.829 21.4912 105.572 20.5168C96.2739 19.5425 92.6604 26.7283 99.6033 34.5636C106.546 42.399 112.19 57.4607 118.483 49.4223C124.817 41.4246 123.599 35.335 130.989 34.5636Z" fill="#AEC3FF"/>
</g>
</g>
<path d="M293.681 277.094L273.339 519.178C273.339 519.178 271.187 533.834 282.109 533.874C300.056 533.915 371.434 533.874 371.434 533.874C371.434 533.874 357.914 530.829 358.076 523.928C358.279 515.808 381.869 274.78 381.869 274.78L293.681 277.094Z" fill="#7599EA"/>
<path d="M378.174 529.571C374.642 529.571 305.537 529.692 288.038 529.489C280.404 529.408 279.065 522.71 279.024 518.406C278.983 516.336 279.268 514.793 279.268 514.793L279.795 508.501L281.135 492.464L282.313 478.296L283.856 460.108L285.155 444.722L299.609 272.709L387.838 270.436C387.838 270.436 377.89 371.321 370.866 444.722C370.095 452.922 369.323 460.758 368.633 468.065C368.389 470.42 368.186 472.693 367.983 474.926C367.334 481.868 366.725 488.242 366.197 493.885C365.913 496.849 365.669 499.61 365.425 502.127C364.532 512.032 364.004 518.366 364.004 519.543C364.004 520.233 364.045 520.883 364.167 521.492C365.669 529.205 376.835 529.571 378.174 529.571Z" fill="#90AFF4"/>
<path d="M79.4644 145.355L129.08 344.568L135.861 371.849L158.963 464.615H588.128L502.985 145.355H79.4644Z" fill="#AEC3FF"/>
<path d="M79.4643 145.355L72.6025 147.669L149.828 471.557L158.963 464.615L79.4643 145.355Z" fill="#90AFF4"/>
<path d="M149.828 471.557H576.312L588.087 464.615H158.963L149.828 471.557Z" fill="#7599EA"/>
<path d="M299.601 533.966H391.93V529.582H299.601V533.966Z" fill="#AEC3FF"/>
<path d="M368.47 471.557L367.983 474.927L281.135 492.465L282.353 478.296L282.922 471.557H368.47Z" fill="#5888DD"/>
<path opacity="0.4" d="M378.174 529.571C374.642 529.571 305.537 529.693 288.038 529.49C280.404 529.409 279.065 522.71 279.024 518.407L365.466 502.127C364.573 512.033 364.045 518.366 364.045 519.543C364.045 520.233 364.085 520.883 364.207 521.492C365.669 529.206 376.835 529.571 378.174 529.571Z" fill="#5888DD"/>
<path d="M79.4644 145.355H502.985L571.684 401.932H143.372L79.4644 145.355Z" fill="#C2D5FF"/>
<path d="M551.708 390.849H155.187L141.017 334.378L135.536 312.536L133.303 303.645L118.727 245.631L117.996 242.627L110.281 211.976L106.83 198.254L103.907 186.562L97.0044 159.118H487.8L495.393 186.562L498.6 198.254L502.376 211.976L527.306 302.346L529.417 310.019L530.392 313.551L547.607 375.95L551.708 390.849Z" fill="#739AF0"/>
<path d="M495.393 186.562H103.907L97.0044 159.118H487.8L495.393 186.562Z" fill="#607CF4"/>
<path d="M113.164 171.5C112.677 169.592 113.854 168.09 115.722 168.09C117.63 168.09 119.538 169.633 120.026 171.5C120.513 173.408 119.335 174.91 117.468 174.91C115.559 174.951 113.651 173.408 113.164 171.5Z" fill="#E9F3FE"/>
<path d="M124.573 171.5C124.086 169.592 125.263 168.09 127.131 168.09C129.039 168.09 130.948 169.633 131.435 171.5C131.922 173.408 130.745 174.91 128.877 174.91C126.969 174.951 125.06 173.408 124.573 171.5Z" fill="#E9F3FE"/>
<path d="M136.835 171.5C136.348 169.592 137.525 168.09 139.393 168.09C141.301 168.09 143.209 169.633 143.697 171.5C144.184 173.408 143.006 174.91 141.139 174.91C139.23 174.951 137.322 173.408 136.835 171.5Z" fill="#E9F3FE"/>
<path opacity="0.5" d="M304.238 401.932L159.085 465.386L143.372 401.932H304.238Z" fill="#90AFF4"/>
<path d="M178.046 78.8963C171.062 81.4946 166.556 87.5436 166.556 94.2423V242.221C166.556 272.507 180.929 300.844 205.006 318.098L291.935 373.798C297.701 377.492 305.577 377.492 311.383 373.798L398.313 318.098C422.39 300.844 436.763 272.466 436.763 242.221V94.6482C436.763 87.7872 431.972 81.6164 424.663 79.0993C319.057 42.9268 276.75 41.9931 178.046 78.8963Z" fill="#FDCD4C"/>
<path d="M424.664 79.0993C373.261 61.5205 336.841 52.2642 301.639 51.6553V376.599C305.05 376.599 308.46 375.665 311.343 373.838L398.272 318.138C422.349 300.884 436.722 272.506 436.722 242.261V94.6482C436.763 87.7872 431.972 81.5757 424.664 79.0993Z" fill="#FBB700"/>
<path d="M310.49 210.839H290.717C272.974 210.839 258.56 196.427 258.56 178.685V174.829C258.56 157.087 272.974 142.675 290.717 142.675H310.49C328.233 142.675 342.647 157.087 342.647 174.829V178.685C342.647 196.427 328.233 210.839 310.49 210.839ZM290.717 155.545C280.079 155.545 271.431 164.192 271.431 174.829V178.685C271.431 189.322 280.079 197.969 290.717 197.969H310.49C321.128 197.969 329.776 189.322 329.776 178.685V174.829C329.776 164.192 321.128 155.545 310.49 155.545H290.717Z" fill="#FFDAA4"/>
<path d="M318.854 300.641H287.631C258.398 300.641 234.727 276.972 234.727 247.742V196.143C234.727 189.606 240.005 184.329 246.542 184.329H353.407C361.771 184.329 368.551 191.108 368.551 199.472V250.949C368.551 278.393 346.301 300.641 318.854 300.641Z" fill="#FFDAA4"/>
<path d="M307.407 235.71C316.505 232.519 321.293 222.557 318.102 213.459C314.91 204.362 304.947 199.574 295.849 202.765C286.75 205.956 281.962 215.918 285.153 225.016C288.345 234.113 298.308 238.901 307.407 235.71Z" fill="#FBB700"/>
<path d="M301.639 227.362C303.71 227.362 305.415 229.067 305.415 231.137V260.205C305.415 262.276 303.71 263.981 301.639 263.981C299.568 263.981 297.863 262.276 297.863 260.205V231.137C297.863 229.067 299.568 227.362 301.639 227.362Z" fill="#FBB700"/>
<path d="M780.176 534.442H576.597C548.216 501.843 549.394 462.138 588.128 426.087C595.071 419.632 607.211 412.649 616.996 410.295C635.064 405.991 655.528 404.977 655.69 404.895C655.731 404.855 678.468 401.729 684.924 393.853C705.062 369.372 710.219 365.881 710.219 365.881C730.723 361.862 748.222 360.684 761.174 367.951C773.193 374.691 781.313 388.656 784.358 414.314C784.927 419.186 785.333 424.423 785.536 430.147C786.267 450.974 790.367 469.527 792.803 485.197C796.336 507.932 798.813 525.227 780.176 534.442Z" fill="#FDCD4C"/>
<path d="M751.024 393.975C738.6 400.755 737.219 423.083 717.73 428.848C698.241 434.613 665.191 434.085 646.433 454.425C628.324 474.033 608.388 424.139 616.996 410.092C635.064 405.789 655.528 404.814 655.69 404.733C655.731 404.693 683.462 404.611 689.958 396.776C710.097 372.418 710.219 365.881 710.219 365.881C730.723 361.903 748.222 360.725 761.174 367.952C775.466 382.689 763.489 387.195 751.024 393.975Z" fill="#ED7D2B"/>
<path d="M674.57 407.494C674.57 407.494 617.646 403.515 609.85 412.528C603.679 419.714 614.925 497.986 614.925 497.986C614.925 497.986 630.395 498.433 631.653 494.332C631.653 494.332 628.771 456.333 631.166 449.756C633.602 443.179 632.059 434.085 632.059 434.085C632.059 434.085 662.349 438.632 671.971 436.318C681.594 434.004 674.57 407.494 674.57 407.494Z" fill="#233862"/>
<path d="M613.22 526.607C609.2 528.272 604.287 533.387 602.298 534.848C600.308 536.31 587.032 535.782 586.625 534.889C585.489 532.534 590.158 530.87 593.081 529.489C593.122 529.489 593.162 529.449 593.203 529.449C596.126 527.987 599.375 522.344 602.054 520.274C604.775 518.163 608.023 508.988 608.023 508.988L617.158 507.12C617.158 507.12 615.291 515.646 616.59 518.609C616.712 518.893 616.833 519.178 616.915 519.462C617.767 522.101 616.834 525.105 613.22 526.607Z" fill="#FFB27D"/>
<path d="M699.58 410.254C699.58 410.254 637.459 416.547 632.018 422.921C626.578 429.254 605.099 511.667 605.099 511.667C605.099 511.667 611.433 515.199 617.199 511.911C617.199 511.911 633.642 483.939 640.91 475.17C648.178 466.401 650.777 443.463 654.634 440.987C655.689 440.337 692.231 444.438 705.63 434.166C719.029 423.855 699.58 410.254 699.58 410.254Z" fill="#2A4E96"/>
<path d="M613.22 526.607C609.2 528.272 604.287 533.387 602.298 534.848C600.308 536.31 587.032 535.782 586.625 534.889C585.489 532.534 590.158 530.87 593.081 529.49C593.122 529.49 593.162 529.449 593.203 529.449L593.609 529.327C593.609 529.327 599.334 531.357 604.084 529.327C607.779 527.744 613.301 521.817 616.915 519.421C617.767 522.101 616.834 525.105 613.22 526.607Z" fill="#2A4E96"/>
<path d="M505.584 252.126C505.584 252.126 530.554 278.027 531.732 287.73C532.909 297.474 519.754 312.698 519.754 312.698L505.584 252.126Z" fill="#D59B00"/>
<path d="M494.297 520.354C494.297 520.354 493.403 534.076 490.764 534.279C490.399 534.32 477.284 534.279 477.284 534.279L460.516 534.158C460.516 534.158 460.637 530.138 465.55 529.286C470.463 528.433 478.665 525.023 481.629 518.568C484.755 511.748 494.297 520.354 494.297 520.354Z" fill="#0E2644"/>
<path d="M531.61 520.436C531.61 520.436 530.716 534.158 528.077 534.361C527.712 534.402 514.597 534.361 514.597 534.361L497.829 534.239C497.829 534.239 497.95 530.22 502.863 529.367C507.776 528.515 515.978 525.105 518.942 518.65C522.068 511.829 531.61 520.436 531.61 520.436Z" fill="#0E2644"/>
<path d="M476.066 372.782C476.066 372.782 480.37 400.795 496.611 450.567C512.852 500.34 515.044 521.857 515.044 521.857L532.585 521.41C532.585 521.41 532.869 467.05 525.357 442.042C517.887 417.034 523.936 351.875 523.936 351.875L476.066 372.782Z" fill="#163560"/>
<path d="M467.58 353.295C467.58 353.295 466.849 395.517 474.077 447.36C481.263 499.203 478.746 521.207 478.746 521.207L496.245 521.816C496.245 521.816 506.802 469.973 503.879 444.031C500.955 418.089 518.374 355.041 518.374 355.041L467.58 353.295Z" fill="#1C468A"/>
<path d="M501.686 254.562L492.347 260.652L478.867 258.094C479.07 256.998 479.963 252.492 480.775 248.432C480.816 248.188 480.857 247.945 480.938 247.701C481.628 244.21 482.237 241.246 482.237 241.246L494.824 235.725L499.534 233.654C499.534 233.735 499.168 237.511 499.128 238.079C498.194 247.904 501.686 254.562 501.686 254.562Z" fill="#FFB27D"/>
<path d="M482.319 251.436C482.562 251.314 498.559 246.646 500.265 247.214C502.011 247.782 503.026 251.152 503.026 251.152L476.918 256.998C476.918 257.039 478.989 252.857 482.319 251.436Z" fill="#D59B00"/>
<path d="M525.073 358.614C522.352 370.955 477.324 372.295 465.712 361.09C464.413 359.791 464.332 353.864 464.86 345.866C465.875 330.236 469.042 306.689 469.204 294.672C469.285 288.867 470.097 282.94 471.153 277.54C473.427 266.051 476.918 257.038 476.918 257.038C476.918 257.038 498.925 249.974 503.026 251.192C522.88 257.038 527.793 346.313 525.073 358.614Z" fill="#FDCD4C"/>
<path d="M464.86 345.866C465.875 330.236 469.042 306.689 469.204 294.672C469.285 288.867 470.098 282.94 471.153 277.54L484.389 275.226C484.389 275.226 497.22 328.084 464.86 345.866Z" fill="#D49B00"/>
<path d="M472.087 324.065C472.087 324.065 472.98 326.217 471.072 327.678C469.164 329.14 467.945 331.454 468.351 333.159C468.798 334.864 472.94 337.665 474.361 337.219C475.782 336.772 478.746 334.539 478.421 333.606C478.096 332.672 480.41 325.689 476.919 322.969C473.467 320.29 472.087 324.065 472.087 324.065Z" fill="#FFB27D"/>
<path d="M487.029 253.872C487.029 253.872 474.117 256.267 463.804 271.37C453.491 286.513 446.711 297.758 448.578 303.198C450.446 308.638 467.702 327.638 470.666 327.638C473.63 327.638 478.462 325.486 478.746 320.615C478.746 320.615 466.646 302.386 469.042 299.666C470.057 298.489 484.836 286.553 486.947 291.953C490.399 300.965 487.029 253.872 487.029 253.872Z" fill="#FDCD4C"/>
<path d="M498.154 238.283C495.393 242.951 485.08 246.97 480.776 248.473C480.816 248.229 480.857 247.985 480.938 247.742C481.629 244.25 482.238 241.287 482.238 241.287L494.824 235.765C497.585 235.725 499.29 236.374 498.154 238.283Z" fill="#FCA56B"/>
<path d="M477.487 240.515C477.487 240.515 497.748 246.889 501.524 234.222C505.3 221.556 510.456 213.842 497.666 209.255C484.877 204.667 480.938 208.727 478.624 212.665C476.35 216.563 472.331 238.526 477.487 240.515Z" fill="#FFB27D"/>
<path d="M479.436 211.407C479.436 211.407 480.694 226.184 483.74 225.535C486.785 224.885 489.546 224.439 489.099 228.864C488.652 233.289 484.389 238.445 493.809 239.257C503.229 240.069 516.79 215.832 514.232 211.244C506.802 197.969 468.676 195.208 479.436 211.407Z" fill="#163560"/>
<path d="M604.775 182.826C604.247 182.705 603.76 183.029 603.638 183.557C603.516 184.085 603.841 184.572 604.369 184.694C604.897 184.816 605.384 184.491 605.506 183.963C605.627 183.476 605.303 182.948 604.775 182.826Z" fill="#D5E5FB"/>
<path d="M603.76 187.17C603.232 187.048 602.745 187.373 602.623 187.901C602.501 188.429 602.826 188.916 603.354 189.038C603.881 189.159 604.369 188.835 604.491 188.307C604.612 187.82 604.287 187.292 603.76 187.17Z" fill="#D5E5FB"/>
<path d="M603.475 192.692C603.597 192.164 603.272 191.677 602.744 191.555C602.217 191.433 601.729 191.758 601.608 192.286C601.486 192.813 601.811 193.301 602.338 193.422C602.866 193.544 603.353 193.219 603.475 192.692Z" fill="#D5E5FB"/>
<path d="M601.77 195.94C601.242 195.818 600.755 196.143 600.633 196.67C600.511 197.198 600.836 197.685 601.364 197.807C601.892 197.929 602.379 197.604 602.501 197.076C602.582 196.589 602.257 196.061 601.77 195.94Z" fill="#D5E5FB"/>
<path d="M600.755 200.283C600.227 200.162 599.74 200.486 599.618 201.014C599.497 201.542 599.821 202.029 600.349 202.151C600.877 202.273 601.364 201.948 601.486 201.42C601.608 200.933 601.283 200.405 600.755 200.283Z" fill="#D5E5FB"/>
<path d="M600.471 205.805C600.593 205.277 600.268 204.79 599.74 204.668C599.212 204.546 598.725 204.871 598.603 205.399C598.481 205.927 598.806 206.414 599.334 206.536C599.821 206.657 600.349 206.333 600.471 205.805Z" fill="#D5E5FB"/>
<path d="M598.766 208.89C598.238 208.768 597.75 209.093 597.629 209.621C597.507 210.148 597.832 210.636 598.36 210.757C598.887 210.879 599.375 210.554 599.496 210.027C599.618 209.539 599.293 209.012 598.766 208.89Z" fill="#D5E5FB"/>
<path d="M597.791 213.234C597.263 213.112 596.776 213.437 596.654 213.964C596.532 214.492 596.857 214.979 597.385 215.101C597.913 215.223 598.4 214.898 598.522 214.37C598.603 213.843 598.278 213.355 597.791 213.234Z" fill="#D5E5FB"/>
<path d="M597.507 218.755C597.628 218.227 597.304 217.74 596.776 217.618C596.248 217.497 595.761 217.821 595.639 218.349C595.517 218.877 595.842 219.364 596.37 219.486C596.857 219.608 597.385 219.283 597.507 218.755Z" fill="#D5E5FB"/>
<path d="M595.761 222.003C595.233 221.881 594.746 222.206 594.624 222.734C594.502 223.262 594.827 223.749 595.355 223.871C595.883 223.992 596.37 223.668 596.492 223.14C596.614 222.653 596.289 222.125 595.761 222.003Z" fill="#D5E5FB"/>
<path d="M594.746 226.347C594.218 226.225 593.731 226.55 593.609 227.078C593.487 227.605 593.812 228.093 594.34 228.214C594.868 228.336 595.355 228.011 595.477 227.484C595.599 226.956 595.274 226.469 594.746 226.347Z" fill="#D5E5FB"/>
<path d="M594.462 231.868C594.583 231.341 594.259 230.853 593.731 230.732C593.203 230.61 592.716 230.935 592.594 231.462C592.472 231.99 592.797 232.477 593.325 232.599C593.853 232.721 594.34 232.396 594.462 231.868Z" fill="#D5E5FB"/>
<path d="M641.235 151.85C641.235 140.28 631.856 130.902 620.285 130.902C608.713 130.902 599.334 140.28 599.334 151.85C599.334 163.421 608.713 172.799 620.285 172.799C631.856 172.799 641.235 163.421 641.235 151.85Z" fill="#C6DCF7"/>
<path d="M620.285 150.146C626.781 150.146 632.059 155.423 632.059 161.919H608.51C608.51 155.423 613.789 150.146 620.285 150.146Z" fill="#EBF3FA"/>
<path d="M571.115 261.626C571.115 272.344 589.224 291.872 589.224 291.872C589.224 291.872 607.332 272.344 607.332 261.626C607.332 250.909 599.212 242.261 589.224 242.261C579.236 242.261 571.115 250.949 571.115 261.626ZM578.708 259.678C578.708 253.872 583.418 249.163 589.224 249.163C595.03 249.163 599.74 253.872 599.74 259.678C599.74 265.483 595.03 270.192 589.224 270.192C583.418 270.192 578.708 265.483 578.708 259.678Z" fill="#C6DCF7"/>
<path d="M152.346 253.994C151.899 252.126 152.711 250.706 154.416 250.706C156.122 250.706 157.624 252.126 158.071 253.994C158.517 255.861 157.705 257.282 156 257.282C154.294 257.323 152.792 255.861 152.346 253.994ZM156.609 253.994C156.325 252.857 155.553 251.964 154.701 251.964C153.848 251.964 153.523 252.817 153.807 253.994C154.092 255.171 154.863 256.024 155.716 256.024C156.568 256.024 156.893 255.171 156.609 253.994Z" fill="#FDCD4C"/>
<path d="M127.619 206.089L126.563 206.373L125.995 205.236L127.7 204.668H128.674L130.217 211.082H128.837L127.619 206.089Z" fill="#2F539B"/>
<path d="M132.613 207.916C132.166 206.048 132.978 204.627 134.683 204.627C136.389 204.627 137.891 206.048 138.338 207.916C138.784 209.783 137.972 211.204 136.267 211.204C134.562 211.204 133.059 209.783 132.613 207.916ZM136.876 207.916C136.592 206.779 135.82 205.886 134.968 205.886C134.115 205.886 133.79 206.738 134.074 207.916C134.359 209.093 135.13 209.946 135.983 209.946C136.835 209.946 137.16 209.053 136.876 207.916Z" fill="#2F539B"/>
<path d="M162.821 296.622C162.374 294.754 163.186 293.333 164.891 293.333C166.597 293.333 168.099 294.754 168.546 296.622C168.992 298.489 168.18 299.91 166.475 299.91C164.77 299.91 163.267 298.489 162.821 296.622ZM167.084 296.622C166.8 295.485 166.028 294.592 165.176 294.592C164.323 294.592 163.998 295.445 164.282 296.622C164.567 297.799 165.338 298.652 166.191 298.652C167.043 298.652 167.368 297.799 167.084 296.622Z" fill="#2F539B"/>
<path d="M134.846 236.09L133.79 236.375L133.222 235.238L134.927 234.669H135.901L137.444 241.084H136.064L134.846 236.09Z" fill="#2F539B"/>
<path d="M139.881 237.917C139.434 236.05 140.246 234.629 141.951 234.629C143.657 234.629 145.159 236.05 145.606 237.917C146.052 239.785 145.24 241.206 143.535 241.206C141.83 241.206 140.327 239.785 139.881 237.917ZM144.144 237.877C143.86 236.74 143.088 235.847 142.236 235.847C141.383 235.847 141.058 236.699 141.342 237.877C141.627 239.054 142.398 239.907 143.251 239.907C144.103 239.947 144.428 239.054 144.144 237.877Z" fill="#2F539B"/>
<path d="M139.028 220.988L137.972 221.272L137.404 220.136L139.109 219.567H140.084L141.626 225.982H140.246L139.028 220.988Z" fill="#FDCD4C"/>
<path d="M144.062 222.815C143.616 220.948 144.428 219.527 146.133 219.527C147.838 219.527 149.341 220.948 149.787 222.815C150.234 224.683 149.422 226.104 147.717 226.104C146.011 226.104 144.509 224.683 144.062 222.815ZM148.326 222.815C148.041 221.679 147.27 220.785 146.417 220.785C145.565 220.785 145.24 221.638 145.524 222.815C145.808 223.993 146.58 224.845 147.432 224.845C148.285 224.845 148.61 223.993 148.326 222.815Z" fill="#FDCD4C"/>
<path d="M138.784 252.208L137.729 252.492L137.16 251.355L138.865 250.787H139.84L141.383 257.202H140.002L138.784 252.208Z" fill="#2F539B"/>
<path d="M143.778 254.035C143.332 252.167 144.144 250.746 145.849 250.746C147.554 250.746 149.056 252.167 149.503 254.035C149.95 255.902 149.138 257.323 147.432 257.323C145.727 257.323 144.225 255.902 143.778 254.035ZM148.082 254.035C147.798 252.898 147.026 252.005 146.174 252.005C145.321 252.005 144.996 252.857 145.28 254.035C145.565 255.212 146.336 256.064 147.189 256.064C148.001 256.064 148.366 255.212 148.082 254.035Z" fill="#2F539B"/>
<path d="M156.933 207.916C156.487 206.048 157.299 204.627 159.004 204.627C160.709 204.627 162.212 206.048 162.658 207.916C163.105 209.783 162.293 211.204 160.588 211.204C158.842 211.204 157.38 209.783 156.933 207.916ZM161.197 207.875C160.912 206.739 160.141 205.845 159.288 205.845C158.436 205.845 158.111 206.698 158.395 207.875C158.679 209.053 159.451 209.905 160.303 209.905C161.156 209.905 161.481 209.053 161.197 207.875Z" fill="#FDCD4C"/>
<path d="M143.332 206.089L142.276 206.373L141.708 205.236L143.413 204.668H144.387L145.93 211.082H144.55L143.332 206.089Z" fill="#2F539B"/>
<path d="M148.367 207.916C147.92 206.048 148.732 204.627 150.437 204.627C152.143 204.627 153.645 206.048 154.091 207.916C154.538 209.783 153.726 211.204 152.021 211.204C150.275 211.204 148.813 209.783 148.367 207.916ZM152.63 207.916C152.346 206.779 151.574 205.886 150.721 205.886C149.869 205.886 149.544 206.738 149.828 207.916C150.112 209.093 150.884 209.946 151.737 209.946C152.589 209.946 152.914 209.093 152.63 207.916Z" fill="#2F539B"/>
<path d="M159.816 285.133C159.37 283.265 160.182 281.844 161.887 281.844C163.592 281.844 165.095 283.265 165.541 285.133C165.988 287 165.176 288.421 163.47 288.421C161.765 288.421 160.263 287 159.816 285.133ZM164.08 285.133C163.795 283.996 163.024 283.103 162.171 283.103C161.319 283.103 160.994 283.955 161.278 285.133C161.562 286.31 162.334 287.163 163.186 287.163C164.039 287.163 164.364 286.31 164.08 285.133Z" fill="#FDCD4C"/>
<path d="M142.316 267.229L141.261 267.513L140.692 266.376L142.398 265.808H143.372L144.915 272.223H143.535L142.316 267.229Z" fill="#2F539B"/>
<path d="M147.351 269.056C146.905 267.188 147.717 265.768 149.422 265.768C151.127 265.768 152.63 267.188 153.076 269.056C153.523 270.923 152.711 272.344 151.006 272.344C149.26 272.344 147.798 270.923 147.351 269.056ZM151.615 269.056C151.33 267.919 150.559 267.026 149.706 267.026C148.854 267.026 148.529 267.879 148.813 269.056C149.097 270.233 149.869 271.086 150.721 271.086C151.574 271.086 151.899 270.193 151.615 269.056Z" fill="#2F539B"/>
<path d="M155.918 269.015C155.472 267.148 156.284 265.727 157.989 265.727C159.694 265.727 161.197 267.148 161.643 269.015C162.09 270.883 161.278 272.304 159.573 272.304C157.827 272.344 156.365 270.883 155.918 269.015ZM160.182 269.015C159.897 267.879 159.126 266.986 158.273 266.986C157.421 266.986 157.096 267.838 157.38 269.015C157.664 270.193 158.436 271.045 159.288 271.045C160.141 271.045 160.466 270.193 160.182 269.015Z" fill="#2F539B"/>
<path d="M165.135 267.189L164.08 267.473L163.511 266.336L165.217 265.768H166.191L167.734 272.182H166.353L165.135 267.189Z" fill="#2F539B"/>
<path d="M146.214 283.346L145.159 283.63L144.59 282.494L146.296 281.925H147.27L148.813 288.34H147.432L146.214 283.346Z" fill="#2F539B"/>
<path d="M151.249 285.173C150.803 283.306 151.615 281.885 153.32 281.885C155.025 281.885 156.528 283.306 156.974 285.173C157.421 287.041 156.609 288.462 154.904 288.462C153.198 288.462 151.696 287.041 151.249 285.173ZM155.513 285.173C155.228 284.036 154.457 283.143 153.604 283.143C152.752 283.143 152.427 283.996 152.711 285.173C152.995 286.351 153.767 287.203 154.619 287.203C155.472 287.203 155.797 286.351 155.513 285.173Z" fill="#2F539B"/>
<path d="M167.368 320.899C166.921 319.032 167.733 317.611 169.439 317.611C171.144 317.611 172.646 319.032 173.093 320.899C173.54 322.767 172.728 324.188 171.022 324.188C169.317 324.188 167.855 322.767 167.368 320.899ZM171.672 320.899C171.388 319.763 170.616 318.869 169.764 318.869C168.911 318.869 168.586 319.722 168.87 320.899C169.155 322.077 169.926 322.929 170.779 322.929C171.591 322.929 171.956 322.077 171.672 320.899Z" fill="#2F539B"/>
<path d="M176.626 319.072L175.57 319.356L175.001 318.22L176.707 317.651H177.681L179.224 324.066H177.844L176.626 319.072Z" fill="#2F539B"/>
<path d="M153.807 319.113L152.752 319.397L152.183 318.26L153.888 317.692H154.863L156.406 324.106H155.025L153.807 319.113Z" fill="#2F539B"/>
<path d="M158.842 320.899C158.395 319.032 159.207 317.611 160.912 317.611C162.618 317.611 164.12 319.032 164.567 320.899C165.013 322.767 164.201 324.188 162.496 324.188C160.75 324.188 159.288 322.767 158.842 320.899ZM163.105 320.899C162.821 319.763 162.049 318.869 161.197 318.869C160.344 318.869 160.019 319.722 160.303 320.899C160.588 322.077 161.359 322.929 162.212 322.929C163.064 322.929 163.389 322.077 163.105 320.899Z" fill="#2F539B"/>
<path d="M181.62 320.859C181.173 318.991 181.985 317.57 183.69 317.57C185.396 317.57 186.898 318.991 187.344 320.859C187.791 322.726 186.979 324.147 185.274 324.147C183.568 324.147 182.066 322.726 181.62 320.859ZM185.923 320.859C185.639 319.722 184.868 318.829 184.015 318.829C183.162 318.829 182.838 319.681 183.122 320.859C183.406 322.036 184.177 322.889 185.03 322.889C185.842 322.889 186.208 322.036 185.923 320.859Z" fill="#FDCD4C"/>
<path d="M190.186 320.859C189.74 318.991 190.552 317.57 192.257 317.57C193.962 317.57 195.465 318.991 195.911 320.859C196.358 322.726 195.546 324.147 193.841 324.147C192.135 324.147 190.633 322.726 190.186 320.859ZM194.45 320.859C194.165 319.722 193.394 318.829 192.541 318.829C191.689 318.829 191.364 319.681 191.648 320.859C191.932 322.036 192.704 322.889 193.556 322.889C194.409 322.889 194.774 322.036 194.45 320.859Z" fill="#FDCD4C"/>
<path d="M156.811 332.388C156.365 330.521 157.177 329.1 158.882 329.1C160.587 329.1 162.09 330.521 162.536 332.388C162.983 334.256 162.171 335.676 160.466 335.676C158.72 335.676 157.258 334.256 156.811 332.388ZM161.075 332.388C160.79 331.251 160.019 330.358 159.166 330.358C158.314 330.358 157.989 331.211 158.273 332.388C158.557 333.565 159.329 334.418 160.181 334.418C161.034 334.418 161.359 333.565 161.075 332.388Z" fill="#2F539B"/>
<path d="M166.028 330.562L164.973 330.846L164.404 329.709L166.11 329.141H167.084L168.627 335.555H167.246L166.028 330.562Z" fill="#2F539B"/>
<path d="M171.063 332.388C170.616 330.521 171.428 329.1 173.134 329.1C174.839 329.1 176.341 330.521 176.788 332.388C177.234 334.256 176.422 335.676 174.717 335.676C172.971 335.676 171.51 334.256 171.063 332.388ZM175.326 332.347C175.042 331.211 174.27 330.318 173.418 330.318C172.565 330.318 172.24 331.17 172.525 332.347C172.809 333.525 173.58 334.377 174.433 334.377C175.286 334.377 175.61 333.525 175.326 332.347Z" fill="#2F539B"/>
<path d="M179.63 332.347C179.184 330.48 179.996 329.059 181.701 329.059C183.406 329.059 184.909 330.48 185.355 332.347C185.802 334.215 184.99 335.636 183.284 335.636C181.539 335.636 180.077 334.215 179.63 332.347ZM183.893 332.347C183.609 331.211 182.838 330.318 181.985 330.318C181.133 330.318 180.808 331.17 181.092 332.347C181.376 333.525 182.148 334.377 183 334.377C183.853 334.377 184.178 333.525 183.893 332.347Z" fill="#2F539B"/>
<path d="M426.491 320.899C426.044 319.032 426.857 317.611 428.562 317.611C430.267 317.611 431.769 319.032 432.216 320.899C432.663 322.767 431.851 324.188 430.145 324.188C428.399 324.188 426.938 322.767 426.491 320.899ZM430.754 320.899C430.47 319.763 429.699 318.869 428.846 318.869C427.993 318.869 427.669 319.722 427.953 320.899C428.237 322.077 429.008 322.929 429.861 322.929C430.714 322.929 431.038 322.077 430.754 320.899Z" fill="#2F539B"/>
<path d="M435.708 319.072L434.652 319.356L434.083 318.22L435.789 317.651H436.763L438.306 324.066H436.926L435.708 319.072Z" fill="#2F539B"/>
<path d="M412.889 319.113L411.834 319.397L411.265 318.26L412.97 317.692H413.945L415.488 324.106H414.107L412.889 319.113Z" fill="#2F539B"/>
<path d="M417.924 320.899C417.477 319.032 418.289 317.611 419.994 317.611C421.7 317.611 423.202 319.032 423.649 320.899C424.095 322.767 423.283 324.188 421.578 324.188C419.832 324.188 418.37 322.767 417.924 320.899ZM422.187 320.899C421.903 319.763 421.131 318.869 420.279 318.869C419.426 318.869 419.101 319.722 419.385 320.899C419.67 322.077 420.441 322.929 421.294 322.929C422.146 322.929 422.471 322.077 422.187 320.899Z" fill="#2F539B"/>
<path d="M440.702 320.859C440.255 318.991 441.067 317.57 442.772 317.57C444.478 317.57 445.98 318.991 446.427 320.859C446.873 322.726 446.061 324.147 444.356 324.147C442.651 324.147 441.189 322.726 440.702 320.859ZM445.006 320.859C444.721 319.722 443.95 318.829 443.097 318.829C442.244 318.829 441.92 319.681 442.204 320.859C442.488 322.036 443.26 322.889 444.112 322.889C444.924 322.889 445.29 322.036 445.006 320.859Z" fill="#FDCD4C"/>
<path d="M449.269 320.859C448.822 318.991 449.634 317.57 451.34 317.57C453.045 317.57 454.547 318.991 454.994 320.859C455.441 322.726 454.629 324.147 452.923 324.147C451.218 324.147 449.756 322.726 449.269 320.859ZM453.573 320.859C453.289 319.722 452.517 318.829 451.665 318.829C450.812 318.829 450.487 319.681 450.771 320.859C451.056 322.036 451.827 322.889 452.68 322.889C453.492 322.889 453.857 322.036 453.573 320.859Z" fill="#FDCD4C"/>
<path d="M392.223 332.388C391.776 330.521 392.588 329.1 394.294 329.1C395.999 329.1 397.501 330.521 397.948 332.388C398.394 334.256 397.582 335.676 395.877 335.676C394.172 335.676 392.67 334.256 392.223 332.388ZM396.486 332.388C396.202 331.251 395.431 330.358 394.578 330.358C393.725 330.358 393.4 331.211 393.685 332.388C393.969 333.565 394.74 334.418 395.593 334.418C396.446 334.418 396.77 333.565 396.486 332.388Z" fill="#2F539B"/>
<path d="M401.44 330.562L400.384 330.846L399.815 329.709L401.521 329.141H402.495L404.038 335.555H402.658L401.44 330.562Z" fill="#2F539B"/>
<path d="M406.474 332.388C406.027 330.521 406.839 329.1 408.545 329.1C410.25 329.1 411.752 330.521 412.199 332.388C412.646 334.256 411.834 335.676 410.128 335.676C408.423 335.676 406.921 334.256 406.474 332.388ZM410.737 332.347C410.453 331.211 409.682 330.318 408.829 330.318C407.976 330.318 407.652 331.17 407.936 332.347C408.22 333.525 408.991 334.377 409.844 334.377C410.697 334.377 411.022 333.525 410.737 332.347Z" fill="#2F539B"/>
<path d="M415.041 332.347C414.595 330.48 415.407 329.059 417.112 329.059C418.817 329.059 420.32 330.48 420.766 332.347C421.213 334.215 420.401 335.636 418.696 335.636C416.99 335.636 415.488 334.215 415.041 332.347ZM419.305 332.347C419.02 331.211 418.249 330.318 417.396 330.318C416.544 330.318 416.219 331.17 416.503 332.347C416.787 333.525 417.559 334.377 418.411 334.377C419.264 334.377 419.589 333.525 419.305 332.347Z" fill="#2F539B"/>
<path d="M178.25 362.471C177.803 360.604 178.615 359.183 180.321 359.183C182.026 359.183 183.528 360.604 183.975 362.471C184.421 364.339 183.609 365.76 181.904 365.76C180.199 365.8 178.697 364.339 178.25 362.471ZM182.554 362.471C182.269 361.334 181.498 360.441 180.645 360.441C179.793 360.441 179.468 361.294 179.752 362.471C180.036 363.648 180.808 364.501 181.66 364.501C182.473 364.501 182.838 363.648 182.554 362.471Z" fill="#FDCD4C"/>
<path d="M187.466 360.644L186.411 360.928L185.842 359.792L187.548 359.223H188.522L190.065 365.638H188.684L187.466 360.644Z" fill="#FDCD4C"/>
<path d="M160.791 344.567L159.735 344.852L159.167 343.715L160.872 343.146H161.846L163.389 349.561H162.009L160.791 344.567Z" fill="#2F539B"/>
<path d="M165.785 346.394C165.338 344.527 166.15 343.106 167.855 343.106C169.561 343.106 171.063 344.527 171.509 346.394C171.956 348.262 171.144 349.683 169.439 349.683C167.733 349.683 166.231 348.262 165.785 346.394ZM170.088 346.354C169.804 345.217 169.033 344.324 168.18 344.324C167.327 344.324 167.003 345.176 167.287 346.354C167.571 347.531 168.342 348.384 169.195 348.384C170.007 348.424 170.373 347.531 170.088 346.354Z" fill="#2F539B"/>
<path d="M174.352 346.354C173.905 344.486 174.717 343.065 176.423 343.065C178.128 343.065 179.63 344.486 180.077 346.354C180.523 348.221 179.711 349.642 178.006 349.642C176.301 349.642 174.799 348.221 174.352 346.354ZM178.615 346.354C178.331 345.217 177.56 344.324 176.707 344.324C175.854 344.324 175.529 345.177 175.814 346.354C176.098 347.531 176.869 348.384 177.722 348.384C178.575 348.384 178.899 347.531 178.615 346.354Z" fill="#2F539B"/>
<path d="M183.568 344.527L182.513 344.811L181.944 343.674L183.65 343.106H184.624L186.167 349.52H184.786L183.568 344.527Z" fill="#2F539B"/>
<path d="M411.468 344.567L410.413 344.852L409.844 343.715L411.55 343.146H412.524L414.067 349.561H412.686L411.468 344.567Z" fill="#2F539B"/>
<path d="M416.503 346.394C416.056 344.527 416.868 343.106 418.573 343.106C420.279 343.106 421.781 344.527 422.228 346.394C422.674 348.262 421.862 349.683 420.157 349.683C418.452 349.683 416.949 348.262 416.503 346.394ZM420.766 346.354C420.482 345.217 419.71 344.324 418.858 344.324C418.005 344.324 417.68 345.176 417.964 346.354C418.249 347.531 419.02 348.384 419.873 348.384C420.725 348.424 421.05 347.531 420.766 346.354Z" fill="#2F539B"/>
<path d="M425.07 346.354C424.623 344.486 425.435 343.065 427.14 343.065C428.846 343.065 430.348 344.486 430.795 346.354C431.241 348.221 430.429 349.642 428.724 349.642C426.978 349.642 425.516 348.221 425.07 346.354ZM429.333 346.354C429.049 345.217 428.277 344.324 427.425 344.324C426.572 344.324 426.247 345.177 426.531 346.354C426.816 347.531 427.587 348.384 428.44 348.384C429.292 348.384 429.617 347.531 429.333 346.354Z" fill="#2F539B"/>
<path d="M434.287 344.527L433.231 344.811L432.663 343.674L434.368 343.106H435.342L436.885 349.52H435.505L434.287 344.527Z" fill="#2F539B"/>
<path d="M164.689 360.685L163.633 360.969L163.064 359.832L164.77 359.264H165.744L167.287 365.678H165.907L164.689 360.685Z" fill="#2F539B"/>
<path d="M169.683 362.512C169.236 360.644 170.048 359.223 171.753 359.223C173.458 359.223 174.961 360.644 175.407 362.512C175.854 364.379 175.042 365.8 173.337 365.8C171.631 365.8 170.17 364.379 169.683 362.512ZM173.986 362.512C173.702 361.375 172.931 360.482 172.078 360.482C171.225 360.482 170.901 361.334 171.185 362.512C171.469 363.689 172.24 364.541 173.093 364.541C173.905 364.541 174.271 363.689 173.986 362.512Z" fill="#2F539B"/>
<path d="M192.501 362.471C192.054 360.604 192.866 359.183 194.572 359.183C196.277 359.183 197.779 360.604 198.226 362.471C198.672 364.338 197.86 365.759 196.155 365.759C194.45 365.759 192.947 364.338 192.501 362.471ZM196.764 362.471C196.48 361.334 195.708 360.441 194.856 360.441C194.003 360.441 193.678 361.294 193.963 362.471C194.247 363.648 195.018 364.501 195.871 364.501C196.723 364.501 197.048 363.648 196.764 362.471Z" fill="#2F539B"/>
<path d="M201.068 362.431C200.621 360.563 201.433 359.142 203.138 359.142C204.844 359.142 206.346 360.563 206.793 362.431C207.239 364.298 206.427 365.719 204.722 365.719C203.017 365.76 201.514 364.298 201.068 362.431ZM205.331 362.431C205.047 361.294 204.275 360.401 203.423 360.401C202.57 360.401 202.245 361.253 202.529 362.431C202.814 363.608 203.585 364.46 204.438 364.46C205.29 364.46 205.615 363.608 205.331 362.431Z" fill="#2F539B"/>
<path d="M181.579 373.879C181.132 372.012 181.944 370.591 183.65 370.591C185.355 370.591 186.857 372.012 187.304 373.879C187.751 375.747 186.938 377.168 185.233 377.168C183.487 377.168 182.026 375.747 181.579 373.879ZM185.842 373.879C185.558 372.743 184.787 371.849 183.934 371.849C183.081 371.849 182.756 372.702 183.041 373.879C183.325 375.057 184.096 375.909 184.949 375.909C185.802 375.909 186.126 375.057 185.842 373.879Z" fill="#FDCD4C"/>
<path d="M190.795 372.052L189.74 372.336L189.171 371.2L190.877 370.631H191.851L193.394 377.046H192.014L190.795 372.052Z" fill="#FDCD4C"/>
<path d="M173.012 373.879C172.565 372.012 173.378 370.591 175.083 370.591C176.788 370.591 178.29 372.012 178.737 373.879C179.184 375.747 178.372 377.168 176.666 377.168C174.92 377.168 173.459 375.747 173.012 373.879ZM177.275 373.879C176.991 372.743 176.22 371.849 175.367 371.849C174.514 371.849 174.19 372.702 174.474 373.879C174.758 375.057 175.529 375.909 176.382 375.909C177.235 375.909 177.56 375.057 177.275 373.879Z" fill="#2F539B"/>
<path d="M195.83 373.838C195.384 371.971 196.196 370.55 197.901 370.55C199.606 370.55 201.109 371.971 201.555 373.838C202.002 375.706 201.19 377.127 199.485 377.127C197.739 377.127 196.277 375.706 195.83 373.838ZM200.094 373.838C199.809 372.701 199.038 371.808 198.185 371.808C197.333 371.808 197.008 372.661 197.292 373.838C197.576 375.016 198.348 375.868 199.2 375.868C200.053 375.868 200.378 375.016 200.094 373.838Z" fill="#2F539B"/>
<path d="M204.357 373.838C203.91 371.971 204.722 370.55 206.428 370.55C208.133 370.55 209.635 371.971 210.082 373.838C210.528 375.706 209.716 377.127 208.011 377.127C206.306 377.127 204.844 375.706 204.357 373.838ZM208.661 373.838C208.376 372.701 207.605 371.808 206.752 371.808C205.9 371.808 205.575 372.661 205.859 373.838C206.143 375.016 206.915 375.868 207.767 375.868C208.579 375.868 208.945 375.016 208.661 373.838Z" fill="#2F539B"/>
<path d="M233.834 373.879C233.387 372.012 234.199 370.591 235.905 370.591C237.61 370.591 239.112 372.012 239.559 373.879C240.005 375.747 239.193 377.168 237.488 377.168C235.783 377.168 234.281 375.747 233.834 373.879ZM238.097 373.879C237.813 372.743 237.041 371.849 236.189 371.849C235.336 371.849 235.011 372.702 235.296 373.879C235.58 375.057 236.351 375.909 237.204 375.909C238.057 375.909 238.381 375.057 238.097 373.879Z" fill="#FDCD4C"/>
<path d="M243.051 372.052L241.995 372.336L241.427 371.2L243.132 370.631H244.107L245.649 377.046H244.269L243.051 372.052Z" fill="#FDCD4C"/>
<path d="M225.267 373.879C224.82 372.012 225.632 370.591 227.338 370.591C229.043 370.591 230.545 372.012 230.992 373.879C231.439 375.747 230.626 377.168 228.921 377.168C227.216 377.168 225.714 375.747 225.267 373.879ZM229.571 373.879C229.287 372.743 228.515 371.849 227.663 371.849C226.81 371.849 226.485 372.702 226.769 373.879C227.053 375.057 227.825 375.909 228.678 375.909C229.53 375.909 229.855 375.057 229.571 373.879Z" fill="#2F539B"/>
<path d="M248.085 373.838C247.639 371.971 248.451 370.55 250.156 370.55C251.861 370.55 253.364 371.971 253.81 373.838C254.257 375.706 253.445 377.127 251.74 377.127C250.034 377.127 248.532 375.706 248.085 373.838ZM252.349 373.838C252.064 372.701 251.293 371.808 250.44 371.808C249.588 371.808 249.263 372.661 249.547 373.838C249.831 375.016 250.603 375.868 251.455 375.868C252.308 375.868 252.633 375.016 252.349 373.838Z" fill="#2F539B"/>
<path d="M256.652 373.838C256.206 371.971 257.018 370.55 258.723 370.55C260.428 370.55 261.931 371.971 262.377 373.838C262.824 375.706 262.012 377.127 260.306 377.127C258.601 377.127 257.099 375.706 256.652 373.838ZM260.915 373.838C260.631 372.701 259.86 371.808 259.007 371.808C258.155 371.808 257.83 372.661 258.114 373.838C258.398 375.016 259.17 375.868 260.022 375.868C260.875 375.868 261.2 375.016 260.915 373.838Z" fill="#2F539B"/>
<path d="M352.879 373.879C352.433 372.012 353.245 370.591 354.95 370.591C356.655 370.591 358.158 372.012 358.604 373.879C359.051 375.747 358.239 377.168 356.534 377.168C354.788 377.168 353.326 375.747 352.879 373.879ZM357.143 373.879C356.858 372.743 356.087 371.849 355.234 371.849C354.382 371.849 354.057 372.702 354.341 373.879C354.625 375.057 355.397 375.909 356.249 375.909C357.102 375.909 357.427 375.057 357.143 373.879Z" fill="#FDCD4C"/>
<path d="M362.096 372.052L361.041 372.336L360.472 371.2L362.177 370.631H363.152L364.695 377.046H363.314L362.096 372.052Z" fill="#FDCD4C"/>
<path d="M344.312 373.879C343.866 372.012 344.678 370.591 346.383 370.591C348.088 370.591 349.591 372.012 350.037 373.879C350.484 375.747 349.672 377.168 347.967 377.168C346.261 377.168 344.759 375.747 344.312 373.879ZM348.576 373.879C348.291 372.743 347.52 371.849 346.667 371.849C345.815 371.849 345.49 372.702 345.774 373.879C346.058 375.057 346.83 375.909 347.682 375.909C348.535 375.909 348.86 375.057 348.576 373.879Z" fill="#2F539B"/>
<path d="M367.09 373.838C366.644 371.971 367.456 370.55 369.161 370.55C370.866 370.55 372.369 371.971 372.815 373.838C373.262 375.706 372.45 377.127 370.744 377.127C369.039 377.127 367.577 375.706 367.09 373.838ZM371.394 373.838C371.11 372.701 370.338 371.808 369.486 371.808C368.633 371.808 368.308 372.661 368.593 373.838C368.877 375.016 369.648 375.868 370.501 375.868C371.313 375.868 371.678 375.016 371.394 373.838Z" fill="#2F539B"/>
<path d="M375.657 373.838C375.211 371.971 376.023 370.55 377.728 370.55C379.433 370.55 380.935 371.971 381.382 373.838C381.829 375.706 381.016 377.127 379.311 377.127C377.606 377.127 376.104 375.706 375.657 373.838ZM379.961 373.838C379.677 372.701 378.905 371.808 378.053 371.808C377.2 371.808 376.875 372.661 377.159 373.838C377.444 375.016 378.215 375.868 379.068 375.868C379.88 375.868 380.245 375.016 379.961 373.838Z" fill="#2F539B"/>
<path d="M405.134 373.879C404.688 372.012 405.5 370.591 407.205 370.591C408.91 370.591 410.413 372.012 410.859 373.879C411.306 375.747 410.494 377.168 408.788 377.168C407.083 377.168 405.581 375.747 405.134 373.879ZM409.397 373.879C409.113 372.743 408.342 371.849 407.489 371.849C406.636 371.849 406.312 372.702 406.596 373.879C406.88 375.057 407.652 375.909 408.504 375.909C409.357 375.909 409.682 375.057 409.397 373.879Z" fill="#FDCD4C"/>
<path d="M414.351 372.052L413.295 372.336L412.727 371.2L414.432 370.631H415.407L416.95 377.046H415.569L414.351 372.052Z" fill="#FDCD4C"/>
<path d="M396.567 373.879C396.121 372.012 396.933 370.591 398.638 370.591C400.343 370.591 401.845 372.012 402.292 373.879C402.739 375.747 401.927 377.168 400.221 377.168C398.516 377.168 397.014 375.747 396.567 373.879ZM400.83 373.879C400.546 372.743 399.775 371.849 398.922 371.849C398.069 371.849 397.745 372.702 398.029 373.879C398.313 375.057 399.085 375.909 399.937 375.909C400.79 375.909 401.115 375.057 400.83 373.879Z" fill="#2F539B"/>
<path d="M419.386 373.838C418.939 371.971 419.751 370.55 421.456 370.55C423.162 370.55 424.664 371.971 425.111 373.838C425.557 375.706 424.745 377.127 423.04 377.127C421.335 377.127 419.832 375.706 419.386 373.838ZM423.649 373.838C423.365 372.701 422.593 371.808 421.741 371.808C420.888 371.808 420.563 372.661 420.847 373.838C421.132 375.016 421.903 375.868 422.756 375.868C423.608 375.868 423.933 375.016 423.649 373.838Z" fill="#2F539B"/>
<path d="M427.953 373.838C427.506 371.971 428.318 370.55 430.024 370.55C431.729 370.55 433.231 371.971 433.678 373.838C434.124 375.706 433.312 377.127 431.607 377.127C429.861 377.127 428.4 375.706 427.953 373.838ZM432.216 373.838C431.932 372.701 431.161 371.808 430.308 371.808C429.455 371.808 429.13 372.661 429.415 373.838C429.699 375.016 430.47 375.868 431.323 375.868C432.176 375.868 432.5 375.016 432.216 373.838Z" fill="#2F539B"/>
<path d="M209.635 362.43C209.189 360.563 210.001 359.142 211.706 359.142C213.411 359.142 214.913 360.563 215.36 362.43C215.807 364.298 214.995 365.719 213.289 365.719C211.584 365.719 210.082 364.298 209.635 362.43ZM213.898 362.43C213.614 361.294 212.843 360.401 211.99 360.401C211.137 360.401 210.813 361.253 211.097 362.43C211.381 363.608 212.152 364.46 213.005 364.46C213.858 364.46 214.183 363.608 213.898 362.43Z" fill="#2F539B"/>
<path d="M218.202 362.43C217.755 360.563 218.567 359.142 220.273 359.142C221.978 359.142 223.48 360.563 223.927 362.43C224.374 364.298 223.562 365.719 221.856 365.719C220.151 365.719 218.649 364.298 218.202 362.43ZM222.465 362.43C222.181 361.294 221.41 360.401 220.557 360.401C219.704 360.401 219.379 361.253 219.664 362.43C219.948 363.608 220.719 364.46 221.572 364.46C222.425 364.46 222.749 363.608 222.465 362.43Z" fill="#2F539B"/>
<path d="M374.764 362.43C374.317 360.563 375.129 359.142 376.835 359.142C378.54 359.142 380.042 360.563 380.489 362.43C380.935 364.298 380.123 365.719 378.418 365.719C376.672 365.719 375.211 364.298 374.764 362.43ZM379.027 362.43C378.743 361.294 377.972 360.401 377.119 360.401C376.266 360.401 375.941 361.253 376.226 362.43C376.51 363.608 377.281 364.46 378.134 364.46C378.987 364.46 379.311 363.608 379.027 362.43Z" fill="#2F539B"/>
<path d="M383.331 362.43C382.884 360.563 383.696 359.142 385.402 359.142C387.107 359.142 388.609 360.563 389.056 362.43C389.502 364.298 388.69 365.719 386.985 365.719C385.28 365.719 383.778 364.298 383.331 362.43ZM387.594 362.43C387.31 361.294 386.539 360.401 385.686 360.401C384.833 360.401 384.508 361.253 384.793 362.43C385.077 363.608 385.848 364.46 386.701 364.46C387.554 364.46 387.878 363.608 387.594 362.43Z" fill="#2F539B"/>
</svg>
