<svg width="44" height="44" viewBox="0 0 44 44" fill="none" xmlns="http://www.w3.org/2000/svg">
<path d="M31.0625 0.25C27.8127 0.25 24.8674 0.859 22.5655 2.00631C20.2654 3.15362 18.375 5.02231 18.375 7.5V14.75C18.375 14.9838 18.4529 15.2104 18.4892 15.4297C16.6749 14.9687 14.8094 14.7403 12.9375 14.75C9.68769 14.75 6.74237 15.359 4.4405 16.5063C2.14044 17.6536 0.25 19.5223 0.25 22V36.5C0.25 38.9777 2.14044 40.8464 4.44231 41.9937C6.74238 43.141 9.68769 43.75 12.9375 43.75C16.1873 43.75 19.1326 43.141 21.4345 41.9937C23.7327 40.8464 25.625 38.9777 25.625 36.5V35.7641C27.3981 36.2435 29.2258 36.4908 31.0625 36.5C34.3123 36.5 37.2576 35.891 39.5595 34.7437C41.8577 33.5964 43.75 31.7277 43.75 29.25V7.5C43.75 5.02231 41.8596 3.15362 39.5577 2.00631C37.2594 0.859 34.3141 0.25 31.0625 0.25ZM31.0625 3.875C33.8229 3.875 36.2807 4.4695 37.9156 5.29056C39.5522 6.11163 40.125 6.97619 40.125 7.5C40.125 8.02562 39.5522 8.88837 37.9156 9.70944C36.2825 10.5305 33.8229 11.125 31.0625 11.125C28.3021 11.125 25.8443 10.5305 24.2094 9.70944C22.5728 8.88837 22 8.02381 22 7.5C22 6.97438 22.5728 6.11163 24.2094 5.29056C25.8425 4.4695 28.3021 3.875 31.0625 3.875ZM22 12.6547C22.1903 12.7599 22.3679 12.8958 22.5673 12.9937C24.8674 14.141 27.8127 14.75 31.0625 14.75C34.3123 14.75 37.2576 14.141 39.5595 12.9937C39.7571 12.8958 39.9347 12.7599 40.125 12.6547V14.75C40.125 15.2756 39.5522 16.1384 37.9156 16.9594C36.2807 17.7805 33.8229 18.375 31.0625 18.375C28.3021 18.375 25.8443 17.7805 24.2094 16.9594C22.5728 16.1384 22 15.2738 22 14.75V12.6547ZM12.9375 18.375C15.6979 18.375 18.1557 18.9695 19.7906 19.7906C21.4272 20.6116 22 21.4762 22 22C22 22.5256 21.4272 23.3884 19.7906 24.2094C18.1557 25.0305 15.6979 25.625 12.9375 25.625C10.1771 25.625 7.71931 25.0305 6.08444 24.2094C4.44775 23.3884 3.875 22.5238 3.875 22C3.875 21.4744 4.44775 20.6116 6.08444 19.7906C7.7175 18.9695 10.1771 18.375 12.9375 18.375ZM40.125 19.9047V22C40.125 22.5256 39.5522 23.3884 37.9156 24.2094C36.2807 25.0305 33.8229 25.625 31.0625 25.625C29.2161 25.635 27.3802 25.348 25.625 24.7749V22C25.625 21.7662 25.5471 21.5396 25.5108 21.3203C27.1964 21.7589 29.0651 22 31.0625 22C34.3123 22 37.2576 21.391 39.5595 20.2437C39.7571 20.1458 39.9347 20.0099 40.125 19.9047ZM3.875 27.1547C4.06531 27.2599 4.24294 27.3958 4.44231 27.4937C6.74238 28.641 9.68769 29.25 12.9375 29.25C16.1873 29.25 19.1326 28.641 21.4345 27.4937C21.6321 27.3958 21.8097 27.2599 22 27.1547V29.25C22 29.7756 21.4272 30.6384 19.7906 31.4594C18.1557 32.2805 15.6979 32.875 12.9375 32.875C10.1771 32.875 7.71931 32.2805 6.08444 31.4594C4.44775 30.6384 3.875 29.7738 3.875 29.25V27.1547ZM40.125 27.1547V29.25C40.125 29.7756 39.5522 30.6384 37.9156 31.4594C36.2807 32.2805 33.8229 32.875 31.0625 32.875C29.0017 32.875 27.1402 32.585 25.625 32.0811V28.5703C27.2889 29.0089 29.1014 29.25 31.0625 29.25C34.3123 29.25 37.2576 28.641 39.5595 27.4937C39.7571 27.3958 39.9347 27.2599 40.125 27.1547ZM3.875 34.4048C4.06531 34.5099 4.24294 34.6458 4.44231 34.7437C6.74238 35.891 9.68769 36.5 12.9375 36.5C16.1873 36.5 19.1326 35.891 21.4345 34.7437C21.6321 34.6458 21.8097 34.5099 22 34.4048V36.5C22 37.0256 21.4272 37.8884 19.7906 38.7094C18.1557 39.5305 15.6979 40.125 12.9375 40.125C10.1771 40.125 7.71931 39.5305 6.08444 38.7094C4.44775 37.8884 3.875 37.0238 3.875 36.5V34.4048Z" fill="white"/>
</svg>
