<svg width="811" height="663" viewBox="0 0 811 663" fill="none" xmlns="http://www.w3.org/2000/svg">
<g opacity="0.8">
<path opacity="0.8" d="M466.64 259.866C466.64 268.026 465.909 276.023 464.488 283.818C461.078 302.452 453.81 319.747 443.497 334.809C419.542 369.804 379.305 392.782 333.709 392.782C279.464 392.782 232.772 360.263 212.105 313.657C209.385 307.527 207.111 301.113 205.325 294.536C202.32 283.493 200.737 271.842 200.737 259.825C200.737 250.122 201.792 240.663 203.741 231.528C203.741 231.407 203.782 231.325 203.823 231.204C209.344 205.992 222.012 183.501 239.593 165.882C244.587 160.888 249.947 156.301 255.712 152.119C258.432 150.13 261.275 148.263 264.157 146.476C284.377 134.013 308.211 126.868 333.709 126.868C337.079 126.868 340.449 126.989 343.738 127.233C348.407 127.558 353.035 128.167 357.542 128.979C376.625 132.43 394.247 139.94 409.554 150.617C419.095 157.235 427.703 165.111 435.214 173.961C439.153 178.589 442.766 183.542 446.055 188.698C448.085 191.905 449.993 195.234 451.739 198.604C455.962 206.764 459.372 215.411 461.89 224.464C465.016 235.791 466.64 247.646 466.64 259.866Z" fill="#D7E5FF"/>
<g opacity="0.8">
<path opacity="0.8" d="M288.559 200.349C283.241 208.753 290.793 223.327 274.876 219.349C258.96 215.37 249.216 213.584 248.363 222.434C247.47 231.284 260.3 231.284 260.3 240.581C260.3 249.878 254.535 252.923 245.724 248.538C236.873 244.113 234.356 237.699 224.043 241.677C213.77 245.656 207.802 243.017 205.487 235.06C205.081 233.68 204.513 232.543 203.823 231.569C203.823 231.447 203.863 231.366 203.904 231.244C209.426 206.033 222.094 183.542 239.674 165.922C244.668 160.929 250.028 156.341 255.793 152.16C258.514 150.17 261.356 148.303 264.239 146.517C268.38 146.679 273.334 148.222 277.556 153.459C286.854 164.948 293.026 159.224 290.833 172.458C288.6 185.734 292.173 187.48 299.684 187.033C307.196 186.586 316.047 186.586 316.94 192.351C317.752 198.157 293.878 191.945 288.559 200.349Z" fill="#AEC3FF"/>
<path opacity="0.8" d="M289.493 261.733C289.493 261.733 281.454 271.071 274.552 265.712C267.649 260.353 269.72 256.983 259.61 260.353C249.5 263.722 245.034 258.161 239.837 262.383C234.64 266.605 238.863 267.133 235.249 276.064C231.676 284.996 224.246 286.457 229.971 295.389C235.696 304.32 246.374 299.733 251.977 304.442C257.58 309.151 255.753 313.779 262.777 315.728C269.801 317.636 276.501 310.816 276.623 319.301C276.744 327.785 274.065 336.027 282.753 343.903C291.483 351.779 289.859 353.565 298.791 357.381C307.764 361.238 318.483 357.747 317.103 352.388C315.763 346.988 304.191 345.933 303.948 339.843C303.704 333.753 309.876 334.281 307.399 326.446C304.922 318.61 311.825 314.388 309.47 309.354C307.155 304.279 293.919 302.574 295.462 297.459C297.005 292.384 308.982 296.688 309.632 285.929C310.282 275.171 303.014 271.314 304.07 260.799C305.247 250.244 290.711 255.278 289.493 261.733Z" fill="#AEC3FF"/>
<path opacity="0.8" d="M466.641 259.865C466.641 268.025 465.91 276.023 464.489 283.818C461.078 302.452 453.81 319.747 443.497 334.809C439.965 335.945 436.392 335.945 432.86 334.524C416.294 327.907 428.556 310.003 435.174 301.031C441.792 292.1 424.902 296.078 412.64 287.756C400.378 279.474 413.98 257.267 401.352 260.921C388.766 264.575 373.499 269.203 366.191 256.942C358.883 244.682 372.809 242.693 366.516 232.421C360.222 222.15 370.17 216.182 382.757 215.167C395.343 214.193 393.679 205.221 409.27 203.881C424.861 202.541 424.536 222.434 441.752 221.135C459.007 219.795 458.236 223.774 458.236 223.774C459.495 223.733 460.672 224.018 461.85 224.545C465.017 235.791 466.641 247.645 466.641 259.865Z" fill="#AEC3FF"/>
<path opacity="0.8" d="M451.78 198.685C437.448 205.667 431.682 186.708 419.42 192.392C407.077 198.157 409.229 187.074 399.525 180.01C389.781 172.946 370.332 185.775 371.226 174.691C372.119 163.649 386.695 166.734 389.781 157.884C392.867 149.034 407.037 151.267 407.037 151.267C407.849 150.942 408.701 150.779 409.595 150.698C419.136 157.316 427.744 165.192 435.255 174.042C439.194 178.67 442.807 183.623 446.096 188.779C448.126 191.986 450.034 195.315 451.78 198.685Z" fill="#AEC3FF"/>
<path opacity="0.8" d="M330.989 160.564C330.989 160.564 338.5 149.724 326.563 146.517C314.626 143.31 314.829 147.491 305.572 146.517C296.274 145.542 292.66 152.728 299.603 160.564C306.546 168.399 312.19 183.461 318.483 175.422C324.817 167.425 323.599 161.335 330.989 160.564Z" fill="#AEC3FF"/>
</g>
</g>
<path d="M493.681 403.094L473.339 645.178C473.339 645.178 471.187 659.834 482.109 659.874C500.056 659.915 571.434 659.874 571.434 659.874C571.434 659.874 557.914 656.829 558.076 649.928C558.279 641.808 581.869 400.78 581.869 400.78L493.681 403.094Z" fill="#7599EA"/>
<path d="M578.174 655.571C574.642 655.571 505.537 655.692 488.038 655.489C480.404 655.408 479.065 648.71 479.024 644.406C478.983 642.336 479.268 640.793 479.268 640.793L479.795 634.501L481.135 618.464L482.313 604.296L483.856 586.108L485.155 570.722L499.609 398.709L587.838 396.436C587.838 396.436 577.89 497.321 570.866 570.722C570.095 578.922 569.323 586.758 568.633 594.065C568.389 596.42 568.186 598.693 567.983 600.926C567.334 607.868 566.725 614.242 566.197 619.885C565.913 622.849 565.669 625.61 565.425 628.127C564.532 638.032 564.004 644.366 564.004 645.543C564.004 646.233 564.045 646.883 564.167 647.492C565.669 655.205 576.835 655.571 578.174 655.571Z" fill="#90AFF4"/>
<path d="M279.464 271.355L329.08 470.568L335.861 497.849L358.963 590.615H788.128L702.985 271.355H279.464Z" fill="#AEC3FF"/>
<path d="M279.464 271.355L272.603 273.669L349.828 597.557L358.963 590.615L279.464 271.355Z" fill="#90AFF4"/>
<path d="M349.828 597.557H776.312L788.087 590.615H358.963L349.828 597.557Z" fill="#7599EA"/>
<path d="M499.601 659.966H591.93V655.582H499.601V659.966Z" fill="#AEC3FF"/>
<path d="M568.47 597.557L567.983 600.927L481.135 618.465L482.353 604.296L482.922 597.557H568.47Z" fill="#5888DD"/>
<path opacity="0.4" d="M578.174 655.571C574.642 655.571 505.537 655.693 488.038 655.49C480.404 655.409 479.065 648.71 479.024 644.407L565.466 628.127C564.573 638.033 564.045 644.366 564.045 645.543C564.045 646.233 564.085 646.883 564.207 647.492C565.669 655.206 576.835 655.571 578.174 655.571Z" fill="#5888DD"/>
<path d="M279.464 271.355H702.985L771.684 527.932H343.372L279.464 271.355Z" fill="#C2D5FF"/>
<path d="M751.708 516.849H355.187L341.017 460.378L335.536 438.536L333.303 429.645L318.727 371.631L317.996 368.627L310.281 337.976L306.83 324.254L303.907 312.562L297.004 285.118H687.8L695.393 312.562L698.6 324.254L702.376 337.976L727.306 428.346L729.417 436.019L730.392 439.551L747.607 501.95L751.708 516.849Z" fill="#739AF0"/>
<path d="M695.393 312.562H303.907L297.004 285.118H687.8L695.393 312.562Z" fill="#607CF4"/>
<path d="M313.164 297.5C312.677 295.592 313.854 294.09 315.722 294.09C317.63 294.09 319.538 295.633 320.026 297.5C320.513 299.408 319.335 300.91 317.468 300.91C315.559 300.951 313.651 299.408 313.164 297.5Z" fill="#E9F3FE"/>
<path d="M324.573 297.5C324.086 295.592 325.263 294.09 327.131 294.09C329.039 294.09 330.948 295.633 331.435 297.5C331.922 299.408 330.745 300.91 328.877 300.91C326.969 300.951 325.06 299.408 324.573 297.5Z" fill="#E9F3FE"/>
<path d="M336.835 297.5C336.348 295.592 337.525 294.09 339.393 294.09C341.301 294.09 343.209 295.633 343.697 297.5C344.184 299.408 343.006 300.91 341.139 300.91C339.23 300.951 337.322 299.408 336.835 297.5Z" fill="#E9F3FE"/>
<path opacity="0.5" d="M504.238 527.932L359.085 591.386L343.372 527.932H504.238Z" fill="#90AFF4"/>
<path d="M378.046 204.896C371.062 207.495 366.556 213.544 366.556 220.242V368.221C366.556 398.507 380.929 426.844 405.006 444.098L491.935 499.798C497.701 503.492 505.577 503.492 511.383 499.798L598.313 444.098C622.39 426.844 636.763 398.466 636.763 368.221V220.648C636.763 213.787 631.972 207.616 624.663 205.099C519.057 168.927 476.75 167.993 378.046 204.896Z" fill="#FDCD4C"/>
<path d="M624.664 205.099C573.261 187.52 536.841 178.264 501.639 177.655V502.599C505.05 502.599 508.46 501.665 511.343 499.838L598.272 444.138C622.349 426.884 636.722 398.506 636.722 368.261V220.648C636.763 213.787 631.972 207.576 624.664 205.099Z" fill="#FBB700"/>
<path d="M510.49 336.839H490.717C472.974 336.839 458.56 322.427 458.56 304.685V300.829C458.56 283.087 472.974 268.675 490.717 268.675H510.49C528.233 268.675 542.647 283.087 542.647 300.829V304.685C542.647 322.427 528.233 336.839 510.49 336.839ZM490.717 281.545C480.079 281.545 471.431 290.192 471.431 300.829V304.685C471.431 315.322 480.079 323.969 490.717 323.969H510.49C521.128 323.969 529.776 315.322 529.776 304.685V300.829C529.776 290.192 521.128 281.545 510.49 281.545H490.717Z" fill="#FFDAA4"/>
<path d="M518.854 426.641H487.631C458.398 426.641 434.727 402.972 434.727 373.742V322.143C434.727 315.606 440.005 310.329 446.542 310.329H553.407C561.771 310.329 568.551 317.108 568.551 325.472V376.949C568.551 404.393 546.301 426.641 518.854 426.641Z" fill="#FFDAA4"/>
<path d="M507.407 361.71C516.505 358.519 521.293 348.557 518.102 339.459C514.91 330.362 504.947 325.574 495.849 328.765C486.75 331.956 481.962 341.918 485.153 351.016C488.345 360.113 498.308 364.901 507.407 361.71Z" fill="#FBB700"/>
<path d="M501.639 353.362C503.71 353.362 505.415 355.067 505.415 357.137V386.205C505.415 388.276 503.71 389.981 501.639 389.981C499.568 389.981 497.863 388.276 497.863 386.205V357.137C497.863 355.067 499.568 353.362 501.639 353.362Z" fill="#FBB700"/>
<path d="M980.176 660.442H776.597C748.216 627.843 749.394 588.138 788.128 552.087C795.071 545.632 807.211 538.649 816.996 536.295C835.064 531.991 855.528 530.977 855.69 530.895C855.731 530.855 878.468 527.729 884.924 519.853C905.062 495.372 910.219 491.881 910.219 491.881C930.723 487.862 948.222 486.684 961.174 493.951C973.193 500.691 981.313 514.656 984.358 540.314C984.927 545.186 985.333 550.423 985.536 556.147C986.267 576.974 990.367 595.527 992.803 611.197C996.336 633.932 998.813 651.227 980.176 660.442Z" fill="#FDCD4C"/>
<path d="M951.024 519.975C938.6 526.755 937.219 549.083 917.73 554.848C898.241 560.613 865.191 560.085 846.433 580.425C828.324 600.033 808.388 550.139 816.996 536.092C835.064 531.789 855.528 530.814 855.69 530.733C855.731 530.693 883.462 530.611 889.958 522.776C910.097 498.418 910.219 491.881 910.219 491.881C930.723 487.903 948.222 486.725 961.174 493.952C975.466 508.689 963.489 513.195 951.024 519.975Z" fill="#ED7D2B"/>
<path d="M874.57 533.494C874.57 533.494 817.646 529.515 809.85 538.528C803.679 545.714 814.925 623.986 814.925 623.986C814.925 623.986 830.395 624.433 831.653 620.332C831.653 620.332 828.771 582.333 831.166 575.756C833.602 569.179 832.059 560.085 832.059 560.085C832.059 560.085 862.349 564.632 871.971 562.318C881.594 560.004 874.57 533.494 874.57 533.494Z" fill="#233862"/>
<path d="M813.22 652.607C809.2 654.272 804.287 659.387 802.298 660.848C800.308 662.31 787.032 661.782 786.625 660.889C785.489 658.534 790.158 656.87 793.081 655.489C793.122 655.489 793.162 655.449 793.203 655.449C796.126 653.987 799.375 648.344 802.054 646.274C804.775 644.163 808.023 634.988 808.023 634.988L817.158 633.12C817.158 633.12 815.291 641.646 816.59 644.609C816.712 644.893 816.833 645.178 816.915 645.462C817.767 648.101 816.834 651.105 813.22 652.607Z" fill="#FFB27D"/>
<path d="M899.58 536.254C899.58 536.254 837.459 542.547 832.018 548.921C826.578 555.254 805.099 637.667 805.099 637.667C805.099 637.667 811.433 641.199 817.199 637.911C817.199 637.911 833.642 609.939 840.91 601.17C848.178 592.401 850.777 569.463 854.634 566.987C855.689 566.337 892.231 570.438 905.63 560.166C919.029 549.855 899.58 536.254 899.58 536.254Z" fill="#2A4E96"/>
<path d="M813.22 652.607C809.2 654.272 804.287 659.387 802.298 660.848C800.308 662.31 787.032 661.782 786.625 660.889C785.489 658.534 790.158 656.87 793.081 655.49C793.122 655.49 793.162 655.449 793.203 655.449L793.609 655.327C793.609 655.327 799.334 657.357 804.084 655.327C807.779 653.744 813.301 647.817 816.915 645.421C817.767 648.101 816.834 651.105 813.22 652.607Z" fill="#2A4E96"/>
<path d="M705.584 378.126C705.584 378.126 730.554 404.027 731.732 413.73C732.909 423.474 719.754 438.698 719.754 438.698L705.584 378.126Z" fill="#D59B00"/>
<path d="M694.297 646.354C694.297 646.354 693.403 660.076 690.764 660.279C690.399 660.32 677.284 660.279 677.284 660.279L660.516 660.158C660.516 660.158 660.637 656.138 665.55 655.286C670.463 654.433 678.665 651.023 681.629 644.568C684.755 637.748 694.297 646.354 694.297 646.354Z" fill="#0E2644"/>
<path d="M731.61 646.436C731.61 646.436 730.716 660.158 728.077 660.361C727.712 660.402 714.597 660.361 714.597 660.361L697.829 660.239C697.829 660.239 697.95 656.22 702.863 655.367C707.776 654.515 715.978 651.105 718.942 644.65C722.068 637.829 731.61 646.436 731.61 646.436Z" fill="#0E2644"/>
<path d="M676.066 498.782C676.066 498.782 680.37 526.795 696.611 576.567C712.852 626.34 715.044 647.857 715.044 647.857L732.585 647.41C732.585 647.41 732.869 593.05 725.357 568.042C717.887 543.034 723.936 477.875 723.936 477.875L676.066 498.782Z" fill="#163560"/>
<path d="M667.58 479.295C667.58 479.295 666.849 521.517 674.077 573.36C681.263 625.203 678.746 647.207 678.746 647.207L696.245 647.816C696.245 647.816 706.802 595.973 703.879 570.031C700.955 544.089 718.374 481.041 718.374 481.041L667.58 479.295Z" fill="#1C468A"/>
<path d="M701.686 380.562L692.347 386.652L678.867 384.094C679.07 382.998 679.963 378.492 680.775 374.432C680.816 374.188 680.857 373.945 680.938 373.701C681.628 370.21 682.237 367.246 682.237 367.246L694.824 361.725L699.534 359.654C699.534 359.735 699.168 363.511 699.128 364.079C698.194 373.904 701.686 380.562 701.686 380.562Z" fill="#FFB27D"/>
<path d="M682.319 377.436C682.562 377.314 698.559 372.646 700.265 373.214C702.011 373.782 703.026 377.152 703.026 377.152L676.918 382.998C676.918 383.039 678.989 378.857 682.319 377.436Z" fill="#D59B00"/>
<path d="M725.073 484.614C722.352 496.955 677.324 498.295 665.712 487.09C664.413 485.791 664.332 479.864 664.86 471.866C665.875 456.236 669.042 432.689 669.204 420.672C669.285 414.867 670.097 408.94 671.153 403.54C673.427 392.051 676.918 383.038 676.918 383.038C676.918 383.038 698.925 375.974 703.026 377.192C722.88 383.038 727.793 472.313 725.073 484.614Z" fill="#FDCD4C"/>
<path d="M664.86 471.866C665.875 456.236 669.042 432.689 669.204 420.672C669.285 414.867 670.098 408.94 671.153 403.54L684.389 401.226C684.389 401.226 697.22 454.084 664.86 471.866Z" fill="#D49B00"/>
<path d="M672.087 450.065C672.087 450.065 672.98 452.217 671.072 453.678C669.164 455.14 667.945 457.454 668.351 459.159C668.798 460.864 672.94 463.665 674.361 463.219C675.782 462.772 678.746 460.539 678.421 459.606C678.096 458.672 680.41 451.689 676.919 448.969C673.467 446.29 672.087 450.065 672.087 450.065Z" fill="#FFB27D"/>
<path d="M687.029 379.872C687.029 379.872 674.117 382.267 663.804 397.37C653.491 412.513 646.711 423.758 648.578 429.198C650.446 434.638 667.702 453.638 670.666 453.638C673.63 453.638 678.462 451.486 678.746 446.615C678.746 446.615 666.646 428.386 669.042 425.666C670.057 424.489 684.836 412.553 686.947 417.953C690.399 426.965 687.029 379.872 687.029 379.872Z" fill="#FDCD4C"/>
<path d="M698.154 364.283C695.393 368.951 685.08 372.97 680.776 374.473C680.816 374.229 680.857 373.985 680.938 373.742C681.629 370.25 682.238 367.287 682.238 367.287L694.824 361.765C697.585 361.725 699.29 362.374 698.154 364.283Z" fill="#FCA56B"/>
<path d="M677.487 366.515C677.487 366.515 697.748 372.889 701.524 360.222C705.3 347.556 710.456 339.842 697.666 335.255C684.877 330.667 680.938 334.727 678.624 338.665C676.35 342.563 672.331 364.526 677.487 366.515Z" fill="#FFB27D"/>
<path d="M679.436 337.407C679.436 337.407 680.694 352.184 683.74 351.535C686.785 350.885 689.546 350.439 689.099 354.864C688.652 359.289 684.389 364.445 693.809 365.257C703.229 366.069 716.79 341.832 714.232 337.244C706.802 323.969 668.676 321.208 679.436 337.407Z" fill="#163560"/>
<path d="M804.775 308.826C804.247 308.705 803.76 309.029 803.638 309.557C803.516 310.085 803.841 310.572 804.369 310.694C804.897 310.816 805.384 310.491 805.506 309.963C805.627 309.476 805.303 308.948 804.775 308.826Z" fill="#D5E5FB"/>
<path d="M803.76 313.17C803.232 313.048 802.745 313.373 802.623 313.901C802.501 314.429 802.826 314.916 803.354 315.038C803.881 315.159 804.369 314.835 804.491 314.307C804.612 313.82 804.287 313.292 803.76 313.17Z" fill="#D5E5FB"/>
<path d="M803.475 318.692C803.597 318.164 803.272 317.677 802.744 317.555C802.217 317.433 801.729 317.758 801.608 318.286C801.486 318.813 801.811 319.301 802.338 319.422C802.866 319.544 803.353 319.219 803.475 318.692Z" fill="#D5E5FB"/>
<path d="M801.77 321.94C801.242 321.818 800.755 322.143 800.633 322.67C800.511 323.198 800.836 323.685 801.364 323.807C801.892 323.929 802.379 323.604 802.501 323.076C802.582 322.589 802.257 322.061 801.77 321.94Z" fill="#D5E5FB"/>
<path d="M800.755 326.283C800.227 326.162 799.74 326.486 799.618 327.014C799.497 327.542 799.821 328.029 800.349 328.151C800.877 328.273 801.364 327.948 801.486 327.42C801.608 326.933 801.283 326.405 800.755 326.283Z" fill="#D5E5FB"/>
<path d="M800.471 331.805C800.593 331.277 800.268 330.79 799.74 330.668C799.212 330.546 798.725 330.871 798.603 331.399C798.481 331.927 798.806 332.414 799.334 332.536C799.821 332.657 800.349 332.333 800.471 331.805Z" fill="#D5E5FB"/>
<path d="M798.766 334.89C798.238 334.768 797.75 335.093 797.629 335.621C797.507 336.148 797.832 336.636 798.36 336.757C798.887 336.879 799.375 336.554 799.496 336.027C799.618 335.539 799.293 335.012 798.766 334.89Z" fill="#D5E5FB"/>
<path d="M797.791 339.234C797.263 339.112 796.776 339.437 796.654 339.964C796.532 340.492 796.857 340.979 797.385 341.101C797.913 341.223 798.4 340.898 798.522 340.37C798.603 339.843 798.278 339.355 797.791 339.234Z" fill="#D5E5FB"/>
<path d="M797.507 344.755C797.628 344.227 797.304 343.74 796.776 343.618C796.248 343.497 795.761 343.821 795.639 344.349C795.517 344.877 795.842 345.364 796.37 345.486C796.857 345.608 797.385 345.283 797.507 344.755Z" fill="#D5E5FB"/>
<path d="M795.761 348.003C795.233 347.881 794.746 348.206 794.624 348.734C794.502 349.262 794.827 349.749 795.355 349.871C795.883 349.992 796.37 349.668 796.492 349.14C796.614 348.653 796.289 348.125 795.761 348.003Z" fill="#D5E5FB"/>
<path d="M794.746 352.347C794.218 352.225 793.731 352.55 793.609 353.078C793.487 353.605 793.812 354.093 794.34 354.214C794.868 354.336 795.355 354.011 795.477 353.484C795.599 352.956 795.274 352.469 794.746 352.347Z" fill="#D5E5FB"/>
<path d="M794.462 357.868C794.583 357.341 794.259 356.853 793.731 356.732C793.203 356.61 792.716 356.935 792.594 357.462C792.472 357.99 792.797 358.477 793.325 358.599C793.853 358.721 794.34 358.396 794.462 357.868Z" fill="#D5E5FB"/>
<path d="M841.235 277.85C841.235 266.28 831.856 256.902 820.285 256.902C808.713 256.902 799.334 266.28 799.334 277.85C799.334 289.421 808.713 298.799 820.285 298.799C831.856 298.799 841.235 289.421 841.235 277.85Z" fill="#C6DCF7"/>
<path d="M820.285 276.146C826.781 276.146 832.059 281.423 832.059 287.919H808.51C808.51 281.423 813.789 276.146 820.285 276.146Z" fill="#EBF3FA"/>
<path d="M771.115 387.626C771.115 398.344 789.224 417.872 789.224 417.872C789.224 417.872 807.332 398.344 807.332 387.626C807.332 376.909 799.212 368.261 789.224 368.261C779.236 368.261 771.115 376.949 771.115 387.626ZM778.708 385.678C778.708 379.872 783.418 375.163 789.224 375.163C795.03 375.163 799.74 379.872 799.74 385.678C799.74 391.483 795.03 396.192 789.224 396.192C783.418 396.192 778.708 391.483 778.708 385.678Z" fill="#C6DCF7"/>
<path d="M352.346 379.994C351.899 378.126 352.711 376.706 354.416 376.706C356.122 376.706 357.624 378.126 358.071 379.994C358.517 381.861 357.705 383.282 356 383.282C354.294 383.323 352.792 381.861 352.346 379.994ZM356.609 379.994C356.325 378.857 355.553 377.964 354.701 377.964C353.848 377.964 353.523 378.817 353.807 379.994C354.092 381.171 354.863 382.024 355.716 382.024C356.568 382.024 356.893 381.171 356.609 379.994Z" fill="#FDCD4C"/>
<path d="M327.619 332.089L326.563 332.373L325.995 331.236L327.7 330.668H328.674L330.217 337.082H328.837L327.619 332.089Z" fill="#2F539B"/>
<path d="M332.613 333.916C332.166 332.048 332.978 330.627 334.683 330.627C336.389 330.627 337.891 332.048 338.338 333.916C338.784 335.783 337.972 337.204 336.267 337.204C334.562 337.204 333.059 335.783 332.613 333.916ZM336.876 333.916C336.592 332.779 335.82 331.886 334.968 331.886C334.115 331.886 333.79 332.738 334.074 333.916C334.359 335.093 335.13 335.946 335.983 335.946C336.835 335.946 337.16 335.053 336.876 333.916Z" fill="#2F539B"/>
<path d="M362.821 422.622C362.374 420.754 363.186 419.333 364.891 419.333C366.597 419.333 368.099 420.754 368.546 422.622C368.992 424.489 368.18 425.91 366.475 425.91C364.77 425.91 363.267 424.489 362.821 422.622ZM367.084 422.622C366.8 421.485 366.028 420.592 365.176 420.592C364.323 420.592 363.998 421.445 364.282 422.622C364.567 423.799 365.338 424.652 366.191 424.652C367.043 424.652 367.368 423.799 367.084 422.622Z" fill="#2F539B"/>
<path d="M334.846 362.09L333.79 362.375L333.222 361.238L334.927 360.669H335.901L337.444 367.084H336.064L334.846 362.09Z" fill="#2F539B"/>
<path d="M339.881 363.917C339.434 362.05 340.246 360.629 341.951 360.629C343.657 360.629 345.159 362.05 345.606 363.917C346.052 365.785 345.24 367.206 343.535 367.206C341.83 367.206 340.327 365.785 339.881 363.917ZM344.144 363.877C343.86 362.74 343.088 361.847 342.236 361.847C341.383 361.847 341.058 362.699 341.342 363.877C341.627 365.054 342.398 365.907 343.251 365.907C344.103 365.947 344.428 365.054 344.144 363.877Z" fill="#2F539B"/>
<path d="M339.028 346.988L337.972 347.272L337.404 346.136L339.109 345.567H340.084L341.626 351.982H340.246L339.028 346.988Z" fill="#FDCD4C"/>
<path d="M344.062 348.815C343.616 346.948 344.428 345.527 346.133 345.527C347.838 345.527 349.341 346.948 349.787 348.815C350.234 350.683 349.422 352.104 347.717 352.104C346.011 352.104 344.509 350.683 344.062 348.815ZM348.326 348.815C348.041 347.679 347.27 346.785 346.417 346.785C345.565 346.785 345.24 347.638 345.524 348.815C345.808 349.993 346.58 350.845 347.432 350.845C348.285 350.845 348.61 349.993 348.326 348.815Z" fill="#FDCD4C"/>
<path d="M338.784 378.208L337.729 378.492L337.16 377.355L338.865 376.787H339.84L341.383 383.202H340.002L338.784 378.208Z" fill="#2F539B"/>
<path d="M343.778 380.035C343.332 378.167 344.144 376.746 345.849 376.746C347.554 376.746 349.056 378.167 349.503 380.035C349.95 381.902 349.138 383.323 347.432 383.323C345.727 383.323 344.225 381.902 343.778 380.035ZM348.082 380.035C347.798 378.898 347.026 378.005 346.174 378.005C345.321 378.005 344.996 378.857 345.28 380.035C345.565 381.212 346.336 382.064 347.189 382.064C348.001 382.064 348.366 381.212 348.082 380.035Z" fill="#2F539B"/>
<path d="M356.933 333.916C356.487 332.048 357.299 330.627 359.004 330.627C360.709 330.627 362.212 332.048 362.658 333.916C363.105 335.783 362.293 337.204 360.588 337.204C358.842 337.204 357.38 335.783 356.933 333.916ZM361.197 333.875C360.912 332.739 360.141 331.845 359.288 331.845C358.436 331.845 358.111 332.698 358.395 333.875C358.679 335.053 359.451 335.905 360.303 335.905C361.156 335.905 361.481 335.053 361.197 333.875Z" fill="#FDCD4C"/>
<path d="M343.332 332.089L342.276 332.373L341.708 331.236L343.413 330.668H344.387L345.93 337.082H344.55L343.332 332.089Z" fill="#2F539B"/>
<path d="M348.367 333.916C347.92 332.048 348.732 330.627 350.437 330.627C352.143 330.627 353.645 332.048 354.091 333.916C354.538 335.783 353.726 337.204 352.021 337.204C350.275 337.204 348.813 335.783 348.367 333.916ZM352.63 333.916C352.346 332.779 351.574 331.886 350.721 331.886C349.869 331.886 349.544 332.738 349.828 333.916C350.112 335.093 350.884 335.946 351.737 335.946C352.589 335.946 352.914 335.093 352.63 333.916Z" fill="#2F539B"/>
<path d="M359.816 411.133C359.37 409.265 360.182 407.844 361.887 407.844C363.592 407.844 365.095 409.265 365.541 411.133C365.988 413 365.176 414.421 363.47 414.421C361.765 414.421 360.263 413 359.816 411.133ZM364.08 411.133C363.795 409.996 363.024 409.103 362.171 409.103C361.319 409.103 360.994 409.955 361.278 411.133C361.562 412.31 362.334 413.163 363.186 413.163C364.039 413.163 364.364 412.31 364.08 411.133Z" fill="#FDCD4C"/>
<path d="M342.316 393.229L341.261 393.513L340.692 392.376L342.398 391.808H343.372L344.915 398.223H343.535L342.316 393.229Z" fill="#2F539B"/>
<path d="M347.351 395.056C346.905 393.188 347.717 391.768 349.422 391.768C351.127 391.768 352.63 393.188 353.076 395.056C353.523 396.923 352.711 398.344 351.006 398.344C349.26 398.344 347.798 396.923 347.351 395.056ZM351.615 395.056C351.33 393.919 350.559 393.026 349.706 393.026C348.854 393.026 348.529 393.879 348.813 395.056C349.097 396.233 349.869 397.086 350.721 397.086C351.574 397.086 351.899 396.193 351.615 395.056Z" fill="#2F539B"/>
<path d="M355.918 395.015C355.472 393.148 356.284 391.727 357.989 391.727C359.694 391.727 361.197 393.148 361.643 395.015C362.09 396.883 361.278 398.304 359.573 398.304C357.827 398.344 356.365 396.883 355.918 395.015ZM360.182 395.015C359.897 393.879 359.126 392.986 358.273 392.986C357.421 392.986 357.096 393.838 357.38 395.015C357.664 396.193 358.436 397.045 359.288 397.045C360.141 397.045 360.466 396.193 360.182 395.015Z" fill="#2F539B"/>
<path d="M365.135 393.189L364.08 393.473L363.511 392.336L365.217 391.768H366.191L367.734 398.182H366.353L365.135 393.189Z" fill="#2F539B"/>
<path d="M346.214 409.346L345.159 409.63L344.59 408.494L346.296 407.925H347.27L348.813 414.34H347.432L346.214 409.346Z" fill="#2F539B"/>
<path d="M351.249 411.173C350.803 409.306 351.615 407.885 353.32 407.885C355.025 407.885 356.528 409.306 356.974 411.173C357.421 413.041 356.609 414.462 354.904 414.462C353.198 414.462 351.696 413.041 351.249 411.173ZM355.513 411.173C355.228 410.036 354.457 409.143 353.604 409.143C352.752 409.143 352.427 409.996 352.711 411.173C352.995 412.351 353.767 413.203 354.619 413.203C355.472 413.203 355.797 412.351 355.513 411.173Z" fill="#2F539B"/>
<path d="M367.368 446.899C366.921 445.032 367.733 443.611 369.439 443.611C371.144 443.611 372.646 445.032 373.093 446.899C373.54 448.767 372.728 450.188 371.022 450.188C369.317 450.188 367.855 448.767 367.368 446.899ZM371.672 446.899C371.388 445.763 370.616 444.869 369.764 444.869C368.911 444.869 368.586 445.722 368.87 446.899C369.155 448.077 369.926 448.929 370.779 448.929C371.591 448.929 371.956 448.077 371.672 446.899Z" fill="#2F539B"/>
<path d="M376.626 445.072L375.57 445.356L375.001 444.22L376.707 443.651H377.681L379.224 450.066H377.844L376.626 445.072Z" fill="#2F539B"/>
<path d="M353.807 445.113L352.752 445.397L352.183 444.26L353.888 443.692H354.863L356.406 450.106H355.025L353.807 445.113Z" fill="#2F539B"/>
<path d="M358.842 446.899C358.395 445.032 359.207 443.611 360.912 443.611C362.618 443.611 364.12 445.032 364.567 446.899C365.013 448.767 364.201 450.188 362.496 450.188C360.75 450.188 359.288 448.767 358.842 446.899ZM363.105 446.899C362.821 445.763 362.049 444.869 361.197 444.869C360.344 444.869 360.019 445.722 360.303 446.899C360.588 448.077 361.359 448.929 362.212 448.929C363.064 448.929 363.389 448.077 363.105 446.899Z" fill="#2F539B"/>
<path d="M381.62 446.859C381.173 444.991 381.985 443.57 383.69 443.57C385.396 443.57 386.898 444.991 387.344 446.859C387.791 448.726 386.979 450.147 385.274 450.147C383.568 450.147 382.066 448.726 381.62 446.859ZM385.923 446.859C385.639 445.722 384.868 444.829 384.015 444.829C383.162 444.829 382.838 445.681 383.122 446.859C383.406 448.036 384.177 448.889 385.03 448.889C385.842 448.889 386.208 448.036 385.923 446.859Z" fill="#FDCD4C"/>
<path d="M390.186 446.859C389.74 444.991 390.552 443.57 392.257 443.57C393.962 443.57 395.465 444.991 395.911 446.859C396.358 448.726 395.546 450.147 393.841 450.147C392.135 450.147 390.633 448.726 390.186 446.859ZM394.45 446.859C394.165 445.722 393.394 444.829 392.541 444.829C391.689 444.829 391.364 445.681 391.648 446.859C391.932 448.036 392.704 448.889 393.556 448.889C394.409 448.889 394.774 448.036 394.45 446.859Z" fill="#FDCD4C"/>
<path d="M356.811 458.388C356.365 456.521 357.177 455.1 358.882 455.1C360.587 455.1 362.09 456.521 362.536 458.388C362.983 460.256 362.171 461.676 360.466 461.676C358.72 461.676 357.258 460.256 356.811 458.388ZM361.075 458.388C360.79 457.251 360.019 456.358 359.166 456.358C358.314 456.358 357.989 457.211 358.273 458.388C358.557 459.565 359.329 460.418 360.181 460.418C361.034 460.418 361.359 459.565 361.075 458.388Z" fill="#2F539B"/>
<path d="M366.028 456.562L364.973 456.846L364.404 455.709L366.11 455.141H367.084L368.627 461.555H367.246L366.028 456.562Z" fill="#2F539B"/>
<path d="M371.063 458.388C370.616 456.521 371.428 455.1 373.134 455.1C374.839 455.1 376.341 456.521 376.788 458.388C377.234 460.256 376.422 461.676 374.717 461.676C372.971 461.676 371.51 460.256 371.063 458.388ZM375.326 458.347C375.042 457.211 374.27 456.318 373.418 456.318C372.565 456.318 372.24 457.17 372.525 458.347C372.809 459.525 373.58 460.377 374.433 460.377C375.286 460.377 375.61 459.525 375.326 458.347Z" fill="#2F539B"/>
<path d="M379.63 458.347C379.184 456.48 379.996 455.059 381.701 455.059C383.406 455.059 384.909 456.48 385.355 458.347C385.802 460.215 384.99 461.636 383.284 461.636C381.539 461.636 380.077 460.215 379.63 458.347ZM383.893 458.347C383.609 457.211 382.838 456.318 381.985 456.318C381.133 456.318 380.808 457.17 381.092 458.347C381.376 459.525 382.148 460.377 383 460.377C383.853 460.377 384.178 459.525 383.893 458.347Z" fill="#2F539B"/>
<path d="M626.491 446.899C626.044 445.032 626.857 443.611 628.562 443.611C630.267 443.611 631.769 445.032 632.216 446.899C632.663 448.767 631.851 450.188 630.145 450.188C628.399 450.188 626.938 448.767 626.491 446.899ZM630.754 446.899C630.47 445.763 629.699 444.869 628.846 444.869C627.993 444.869 627.669 445.722 627.953 446.899C628.237 448.077 629.008 448.929 629.861 448.929C630.714 448.929 631.038 448.077 630.754 446.899Z" fill="#2F539B"/>
<path d="M635.708 445.072L634.652 445.356L634.083 444.22L635.789 443.651H636.763L638.306 450.066H636.926L635.708 445.072Z" fill="#2F539B"/>
<path d="M612.889 445.113L611.834 445.397L611.265 444.26L612.97 443.692H613.945L615.488 450.106H614.107L612.889 445.113Z" fill="#2F539B"/>
<path d="M617.924 446.899C617.477 445.032 618.289 443.611 619.994 443.611C621.7 443.611 623.202 445.032 623.649 446.899C624.095 448.767 623.283 450.188 621.578 450.188C619.832 450.188 618.37 448.767 617.924 446.899ZM622.187 446.899C621.903 445.763 621.131 444.869 620.279 444.869C619.426 444.869 619.101 445.722 619.385 446.899C619.67 448.077 620.441 448.929 621.294 448.929C622.146 448.929 622.471 448.077 622.187 446.899Z" fill="#2F539B"/>
<path d="M640.702 446.859C640.255 444.991 641.067 443.57 642.772 443.57C644.478 443.57 645.98 444.991 646.427 446.859C646.873 448.726 646.061 450.147 644.356 450.147C642.651 450.147 641.189 448.726 640.702 446.859ZM645.006 446.859C644.721 445.722 643.95 444.829 643.097 444.829C642.244 444.829 641.92 445.681 642.204 446.859C642.488 448.036 643.26 448.889 644.112 448.889C644.924 448.889 645.29 448.036 645.006 446.859Z" fill="#FDCD4C"/>
<path d="M649.269 446.859C648.822 444.991 649.634 443.57 651.34 443.57C653.045 443.57 654.547 444.991 654.994 446.859C655.441 448.726 654.629 450.147 652.923 450.147C651.218 450.147 649.756 448.726 649.269 446.859ZM653.573 446.859C653.289 445.722 652.517 444.829 651.665 444.829C650.812 444.829 650.487 445.681 650.771 446.859C651.056 448.036 651.827 448.889 652.68 448.889C653.492 448.889 653.857 448.036 653.573 446.859Z" fill="#FDCD4C"/>
<path d="M592.223 458.388C591.776 456.521 592.588 455.1 594.294 455.1C595.999 455.1 597.501 456.521 597.948 458.388C598.394 460.256 597.582 461.676 595.877 461.676C594.172 461.676 592.67 460.256 592.223 458.388ZM596.486 458.388C596.202 457.251 595.431 456.358 594.578 456.358C593.725 456.358 593.4 457.211 593.685 458.388C593.969 459.565 594.74 460.418 595.593 460.418C596.446 460.418 596.77 459.565 596.486 458.388Z" fill="#2F539B"/>
<path d="M601.44 456.562L600.384 456.846L599.815 455.709L601.521 455.141H602.495L604.038 461.555H602.658L601.44 456.562Z" fill="#2F539B"/>
<path d="M606.474 458.388C606.027 456.521 606.839 455.1 608.545 455.1C610.25 455.1 611.752 456.521 612.199 458.388C612.646 460.256 611.834 461.676 610.128 461.676C608.423 461.676 606.921 460.256 606.474 458.388ZM610.737 458.347C610.453 457.211 609.682 456.318 608.829 456.318C607.976 456.318 607.652 457.17 607.936 458.347C608.22 459.525 608.991 460.377 609.844 460.377C610.697 460.377 611.022 459.525 610.737 458.347Z" fill="#2F539B"/>
<path d="M615.041 458.347C614.595 456.48 615.407 455.059 617.112 455.059C618.817 455.059 620.32 456.48 620.766 458.347C621.213 460.215 620.401 461.636 618.696 461.636C616.99 461.636 615.488 460.215 615.041 458.347ZM619.305 458.347C619.02 457.211 618.249 456.318 617.396 456.318C616.544 456.318 616.219 457.17 616.503 458.347C616.787 459.525 617.559 460.377 618.411 460.377C619.264 460.377 619.589 459.525 619.305 458.347Z" fill="#2F539B"/>
<path d="M378.25 488.471C377.803 486.604 378.615 485.183 380.321 485.183C382.026 485.183 383.528 486.604 383.975 488.471C384.421 490.339 383.609 491.76 381.904 491.76C380.199 491.8 378.697 490.339 378.25 488.471ZM382.554 488.471C382.269 487.334 381.498 486.441 380.645 486.441C379.793 486.441 379.468 487.294 379.752 488.471C380.036 489.648 380.808 490.501 381.66 490.501C382.473 490.501 382.838 489.648 382.554 488.471Z" fill="#FDCD4C"/>
<path d="M387.466 486.644L386.411 486.928L385.842 485.792L387.548 485.223H388.522L390.065 491.638H388.684L387.466 486.644Z" fill="#FDCD4C"/>
<path d="M360.791 470.567L359.735 470.852L359.167 469.715L360.872 469.146H361.846L363.389 475.561H362.009L360.791 470.567Z" fill="#2F539B"/>
<path d="M365.785 472.394C365.338 470.527 366.15 469.106 367.855 469.106C369.561 469.106 371.063 470.527 371.509 472.394C371.956 474.262 371.144 475.683 369.439 475.683C367.733 475.683 366.231 474.262 365.785 472.394ZM370.088 472.354C369.804 471.217 369.033 470.324 368.18 470.324C367.327 470.324 367.003 471.176 367.287 472.354C367.571 473.531 368.342 474.384 369.195 474.384C370.007 474.424 370.373 473.531 370.088 472.354Z" fill="#2F539B"/>
<path d="M374.352 472.354C373.905 470.486 374.717 469.065 376.423 469.065C378.128 469.065 379.63 470.486 380.077 472.354C380.523 474.221 379.711 475.642 378.006 475.642C376.301 475.642 374.799 474.221 374.352 472.354ZM378.615 472.354C378.331 471.217 377.56 470.324 376.707 470.324C375.854 470.324 375.529 471.177 375.814 472.354C376.098 473.531 376.869 474.384 377.722 474.384C378.575 474.384 378.899 473.531 378.615 472.354Z" fill="#2F539B"/>
<path d="M383.568 470.527L382.513 470.811L381.944 469.674L383.65 469.106H384.624L386.167 475.52H384.786L383.568 470.527Z" fill="#2F539B"/>
<path d="M611.468 470.567L610.413 470.852L609.844 469.715L611.55 469.146H612.524L614.067 475.561H612.686L611.468 470.567Z" fill="#2F539B"/>
<path d="M616.503 472.394C616.056 470.527 616.868 469.106 618.573 469.106C620.279 469.106 621.781 470.527 622.228 472.394C622.674 474.262 621.862 475.683 620.157 475.683C618.452 475.683 616.949 474.262 616.503 472.394ZM620.766 472.354C620.482 471.217 619.71 470.324 618.858 470.324C618.005 470.324 617.68 471.176 617.964 472.354C618.249 473.531 619.02 474.384 619.873 474.384C620.725 474.424 621.05 473.531 620.766 472.354Z" fill="#2F539B"/>
<path d="M625.07 472.354C624.623 470.486 625.435 469.065 627.14 469.065C628.846 469.065 630.348 470.486 630.795 472.354C631.241 474.221 630.429 475.642 628.724 475.642C626.978 475.642 625.516 474.221 625.07 472.354ZM629.333 472.354C629.049 471.217 628.277 470.324 627.425 470.324C626.572 470.324 626.247 471.177 626.531 472.354C626.816 473.531 627.587 474.384 628.44 474.384C629.292 474.384 629.617 473.531 629.333 472.354Z" fill="#2F539B"/>
<path d="M634.287 470.527L633.231 470.811L632.663 469.674L634.368 469.106H635.342L636.885 475.52H635.505L634.287 470.527Z" fill="#2F539B"/>
<path d="M364.689 486.685L363.633 486.969L363.064 485.832L364.77 485.264H365.744L367.287 491.678H365.907L364.689 486.685Z" fill="#2F539B"/>
<path d="M369.683 488.512C369.236 486.644 370.048 485.223 371.753 485.223C373.458 485.223 374.961 486.644 375.407 488.512C375.854 490.379 375.042 491.8 373.337 491.8C371.631 491.8 370.17 490.379 369.683 488.512ZM373.986 488.512C373.702 487.375 372.931 486.482 372.078 486.482C371.225 486.482 370.901 487.334 371.185 488.512C371.469 489.689 372.24 490.541 373.093 490.541C373.905 490.541 374.271 489.689 373.986 488.512Z" fill="#2F539B"/>
<path d="M392.501 488.471C392.054 486.604 392.866 485.183 394.572 485.183C396.277 485.183 397.779 486.604 398.226 488.471C398.672 490.338 397.86 491.759 396.155 491.759C394.45 491.759 392.947 490.338 392.501 488.471ZM396.764 488.471C396.48 487.334 395.708 486.441 394.856 486.441C394.003 486.441 393.678 487.294 393.963 488.471C394.247 489.648 395.018 490.501 395.871 490.501C396.723 490.501 397.048 489.648 396.764 488.471Z" fill="#2F539B"/>
<path d="M401.068 488.431C400.621 486.563 401.433 485.142 403.138 485.142C404.844 485.142 406.346 486.563 406.793 488.431C407.239 490.298 406.427 491.719 404.722 491.719C403.017 491.76 401.514 490.298 401.068 488.431ZM405.331 488.431C405.047 487.294 404.275 486.401 403.423 486.401C402.57 486.401 402.245 487.253 402.529 488.431C402.814 489.608 403.585 490.46 404.438 490.46C405.29 490.46 405.615 489.608 405.331 488.431Z" fill="#2F539B"/>
<path d="M381.579 499.879C381.132 498.012 381.944 496.591 383.65 496.591C385.355 496.591 386.857 498.012 387.304 499.879C387.751 501.747 386.938 503.168 385.233 503.168C383.487 503.168 382.026 501.747 381.579 499.879ZM385.842 499.879C385.558 498.743 384.787 497.849 383.934 497.849C383.081 497.849 382.756 498.702 383.041 499.879C383.325 501.057 384.096 501.909 384.949 501.909C385.802 501.909 386.126 501.057 385.842 499.879Z" fill="#FDCD4C"/>
<path d="M390.795 498.052L389.74 498.336L389.171 497.2L390.877 496.631H391.851L393.394 503.046H392.014L390.795 498.052Z" fill="#FDCD4C"/>
<path d="M373.012 499.879C372.565 498.012 373.378 496.591 375.083 496.591C376.788 496.591 378.29 498.012 378.737 499.879C379.184 501.747 378.372 503.168 376.666 503.168C374.92 503.168 373.459 501.747 373.012 499.879ZM377.275 499.879C376.991 498.743 376.22 497.849 375.367 497.849C374.514 497.849 374.19 498.702 374.474 499.879C374.758 501.057 375.529 501.909 376.382 501.909C377.235 501.909 377.56 501.057 377.275 499.879Z" fill="#2F539B"/>
<path d="M395.83 499.838C395.384 497.971 396.196 496.55 397.901 496.55C399.606 496.55 401.109 497.971 401.555 499.838C402.002 501.706 401.19 503.127 399.485 503.127C397.739 503.127 396.277 501.706 395.83 499.838ZM400.094 499.838C399.809 498.701 399.038 497.808 398.185 497.808C397.333 497.808 397.008 498.661 397.292 499.838C397.576 501.016 398.348 501.868 399.2 501.868C400.053 501.868 400.378 501.016 400.094 499.838Z" fill="#2F539B"/>
<path d="M404.357 499.838C403.91 497.971 404.722 496.55 406.428 496.55C408.133 496.55 409.635 497.971 410.082 499.838C410.528 501.706 409.716 503.127 408.011 503.127C406.306 503.127 404.844 501.706 404.357 499.838ZM408.661 499.838C408.376 498.701 407.605 497.808 406.752 497.808C405.9 497.808 405.575 498.661 405.859 499.838C406.143 501.016 406.915 501.868 407.767 501.868C408.579 501.868 408.945 501.016 408.661 499.838Z" fill="#2F539B"/>
<path d="M433.834 499.879C433.387 498.012 434.199 496.591 435.905 496.591C437.61 496.591 439.112 498.012 439.559 499.879C440.005 501.747 439.193 503.168 437.488 503.168C435.783 503.168 434.281 501.747 433.834 499.879ZM438.097 499.879C437.813 498.743 437.041 497.849 436.189 497.849C435.336 497.849 435.011 498.702 435.296 499.879C435.58 501.057 436.351 501.909 437.204 501.909C438.057 501.909 438.381 501.057 438.097 499.879Z" fill="#FDCD4C"/>
<path d="M443.051 498.052L441.995 498.336L441.427 497.2L443.132 496.631H444.107L445.649 503.046H444.269L443.051 498.052Z" fill="#FDCD4C"/>
<path d="M425.267 499.879C424.82 498.012 425.632 496.591 427.338 496.591C429.043 496.591 430.545 498.012 430.992 499.879C431.439 501.747 430.626 503.168 428.921 503.168C427.216 503.168 425.714 501.747 425.267 499.879ZM429.571 499.879C429.287 498.743 428.515 497.849 427.663 497.849C426.81 497.849 426.485 498.702 426.769 499.879C427.053 501.057 427.825 501.909 428.678 501.909C429.53 501.909 429.855 501.057 429.571 499.879Z" fill="#2F539B"/>
<path d="M448.085 499.838C447.639 497.971 448.451 496.55 450.156 496.55C451.861 496.55 453.364 497.971 453.81 499.838C454.257 501.706 453.445 503.127 451.74 503.127C450.034 503.127 448.532 501.706 448.085 499.838ZM452.349 499.838C452.064 498.701 451.293 497.808 450.44 497.808C449.588 497.808 449.263 498.661 449.547 499.838C449.831 501.016 450.603 501.868 451.455 501.868C452.308 501.868 452.633 501.016 452.349 499.838Z" fill="#2F539B"/>
<path d="M456.652 499.838C456.206 497.971 457.018 496.55 458.723 496.55C460.428 496.55 461.931 497.971 462.377 499.838C462.824 501.706 462.012 503.127 460.306 503.127C458.601 503.127 457.099 501.706 456.652 499.838ZM460.915 499.838C460.631 498.701 459.86 497.808 459.007 497.808C458.155 497.808 457.83 498.661 458.114 499.838C458.398 501.016 459.17 501.868 460.022 501.868C460.875 501.868 461.2 501.016 460.915 499.838Z" fill="#2F539B"/>
<path d="M552.879 499.879C552.433 498.012 553.245 496.591 554.95 496.591C556.655 496.591 558.158 498.012 558.604 499.879C559.051 501.747 558.239 503.168 556.534 503.168C554.788 503.168 553.326 501.747 552.879 499.879ZM557.143 499.879C556.858 498.743 556.087 497.849 555.234 497.849C554.382 497.849 554.057 498.702 554.341 499.879C554.625 501.057 555.397 501.909 556.249 501.909C557.102 501.909 557.427 501.057 557.143 499.879Z" fill="#FDCD4C"/>
<path d="M562.096 498.052L561.041 498.336L560.472 497.2L562.177 496.631H563.152L564.695 503.046H563.314L562.096 498.052Z" fill="#FDCD4C"/>
<path d="M544.312 499.879C543.866 498.012 544.678 496.591 546.383 496.591C548.088 496.591 549.591 498.012 550.037 499.879C550.484 501.747 549.672 503.168 547.967 503.168C546.261 503.168 544.759 501.747 544.312 499.879ZM548.576 499.879C548.291 498.743 547.52 497.849 546.667 497.849C545.815 497.849 545.49 498.702 545.774 499.879C546.058 501.057 546.83 501.909 547.682 501.909C548.535 501.909 548.86 501.057 548.576 499.879Z" fill="#2F539B"/>
<path d="M567.09 499.838C566.644 497.971 567.456 496.55 569.161 496.55C570.866 496.55 572.369 497.971 572.815 499.838C573.262 501.706 572.45 503.127 570.744 503.127C569.039 503.127 567.577 501.706 567.09 499.838ZM571.394 499.838C571.11 498.701 570.338 497.808 569.486 497.808C568.633 497.808 568.308 498.661 568.593 499.838C568.877 501.016 569.648 501.868 570.501 501.868C571.313 501.868 571.678 501.016 571.394 499.838Z" fill="#2F539B"/>
<path d="M575.657 499.838C575.211 497.971 576.023 496.55 577.728 496.55C579.433 496.55 580.935 497.971 581.382 499.838C581.829 501.706 581.016 503.127 579.311 503.127C577.606 503.127 576.104 501.706 575.657 499.838ZM579.961 499.838C579.677 498.701 578.905 497.808 578.053 497.808C577.2 497.808 576.875 498.661 577.159 499.838C577.444 501.016 578.215 501.868 579.068 501.868C579.88 501.868 580.245 501.016 579.961 499.838Z" fill="#2F539B"/>
<path d="M605.134 499.879C604.688 498.012 605.5 496.591 607.205 496.591C608.91 496.591 610.413 498.012 610.859 499.879C611.306 501.747 610.494 503.168 608.788 503.168C607.083 503.168 605.581 501.747 605.134 499.879ZM609.397 499.879C609.113 498.743 608.342 497.849 607.489 497.849C606.636 497.849 606.312 498.702 606.596 499.879C606.88 501.057 607.652 501.909 608.504 501.909C609.357 501.909 609.682 501.057 609.397 499.879Z" fill="#FDCD4C"/>
<path d="M614.351 498.052L613.295 498.336L612.727 497.2L614.432 496.631H615.407L616.95 503.046H615.569L614.351 498.052Z" fill="#FDCD4C"/>
<path d="M596.567 499.879C596.121 498.012 596.933 496.591 598.638 496.591C600.343 496.591 601.845 498.012 602.292 499.879C602.739 501.747 601.927 503.168 600.221 503.168C598.516 503.168 597.014 501.747 596.567 499.879ZM600.83 499.879C600.546 498.743 599.775 497.849 598.922 497.849C598.069 497.849 597.745 498.702 598.029 499.879C598.313 501.057 599.085 501.909 599.937 501.909C600.79 501.909 601.115 501.057 600.83 499.879Z" fill="#2F539B"/>
<path d="M619.386 499.838C618.939 497.971 619.751 496.55 621.456 496.55C623.162 496.55 624.664 497.971 625.111 499.838C625.557 501.706 624.745 503.127 623.04 503.127C621.335 503.127 619.832 501.706 619.386 499.838ZM623.649 499.838C623.365 498.701 622.593 497.808 621.741 497.808C620.888 497.808 620.563 498.661 620.847 499.838C621.132 501.016 621.903 501.868 622.756 501.868C623.608 501.868 623.933 501.016 623.649 499.838Z" fill="#2F539B"/>
<path d="M627.953 499.838C627.506 497.971 628.318 496.55 630.024 496.55C631.729 496.55 633.231 497.971 633.678 499.838C634.124 501.706 633.312 503.127 631.607 503.127C629.861 503.127 628.4 501.706 627.953 499.838ZM632.216 499.838C631.932 498.701 631.161 497.808 630.308 497.808C629.455 497.808 629.13 498.661 629.415 499.838C629.699 501.016 630.47 501.868 631.323 501.868C632.176 501.868 632.5 501.016 632.216 499.838Z" fill="#2F539B"/>
<path d="M409.635 488.43C409.189 486.563 410.001 485.142 411.706 485.142C413.411 485.142 414.913 486.563 415.36 488.43C415.807 490.298 414.995 491.719 413.289 491.719C411.584 491.719 410.082 490.298 409.635 488.43ZM413.898 488.43C413.614 487.294 412.843 486.401 411.99 486.401C411.137 486.401 410.813 487.253 411.097 488.43C411.381 489.608 412.152 490.46 413.005 490.46C413.858 490.46 414.183 489.608 413.898 488.43Z" fill="#2F539B"/>
<path d="M418.202 488.43C417.755 486.563 418.567 485.142 420.273 485.142C421.978 485.142 423.48 486.563 423.927 488.43C424.374 490.298 423.562 491.719 421.856 491.719C420.151 491.719 418.649 490.298 418.202 488.43ZM422.465 488.43C422.181 487.294 421.41 486.401 420.557 486.401C419.704 486.401 419.379 487.253 419.664 488.43C419.948 489.608 420.719 490.46 421.572 490.46C422.425 490.46 422.749 489.608 422.465 488.43Z" fill="#2F539B"/>
<path d="M574.764 488.43C574.317 486.563 575.129 485.142 576.835 485.142C578.54 485.142 580.042 486.563 580.489 488.43C580.935 490.298 580.123 491.719 578.418 491.719C576.672 491.719 575.211 490.298 574.764 488.43ZM579.027 488.43C578.743 487.294 577.972 486.401 577.119 486.401C576.266 486.401 575.941 487.253 576.226 488.43C576.51 489.608 577.281 490.46 578.134 490.46C578.987 490.46 579.311 489.608 579.027 488.43Z" fill="#2F539B"/>
<path d="M583.331 488.43C582.884 486.563 583.696 485.142 585.402 485.142C587.107 485.142 588.609 486.563 589.056 488.43C589.502 490.298 588.69 491.719 586.985 491.719C585.28 491.719 583.778 490.298 583.331 488.43ZM587.594 488.43C587.31 487.294 586.539 486.401 585.686 486.401C584.833 486.401 584.508 487.253 584.793 488.43C585.077 489.608 585.848 490.46 586.701 490.46C587.554 490.46 587.878 489.608 587.594 488.43Z" fill="#2F539B"/>
</svg>
