<svg width="20" height="20" viewBox="0 0 20 20" fill="none" xmlns="http://www.w3.org/2000/svg">
<path d="M10.0001 1.66699C5.40508 1.66699 1.66675 5.40533 1.66675 10.0003V13.4528C1.66675 14.3062 2.41425 15.0003 3.33341 15.0003H4.16675C4.38776 15.0003 4.59972 14.9125 4.756 14.7562C4.91228 14.6 5.00008 14.388 5.00008 14.167V9.88116C5.00008 9.66015 4.91228 9.44818 4.756 9.2919C4.59972 9.13562 4.38776 9.04783 4.16675 9.04783H3.41008C3.87341 5.82283 6.64842 3.33366 10.0001 3.33366C13.3517 3.33366 16.1267 5.82283 16.5901 9.04783H15.8334C15.6124 9.04783 15.4004 9.13562 15.2442 9.2919C15.0879 9.44818 15.0001 9.66015 15.0001 9.88116V15.0003C15.0001 15.9195 14.2526 16.667 13.3334 16.667H11.6667V15.8337H8.33342V18.3337H13.3334C15.1717 18.3337 16.6667 16.8387 16.6667 15.0003C17.5859 15.0003 18.3334 14.3062 18.3334 13.4528V10.0003C18.3334 5.40533 14.5951 1.66699 10.0001 1.66699Z" fill="#FDCD4C"/>
</svg>
