<svg width="22" height="21" viewBox="0 0 22 21" fill="none" xmlns="http://www.w3.org/2000/svg">
<path d="M9 1H13C15.1217 1 17.1566 1.84285 18.6569 3.34315C20.1571 4.84344 21 6.87827 21 9C21 11.1217 20.1571 13.1566 18.6569 14.6569C17.1566 16.1571 15.1217 17 13 17V20.5C8 18.5 1 15.5 1 9C1 6.87827 1.84285 4.84344 3.34315 3.34315C4.84344 1.84285 6.87827 1 9 1ZM11 15H13C14.5913 15 16.1174 14.3679 17.2426 13.2426C18.3679 12.1174 19 10.5913 19 9C19 7.4087 18.3679 5.88258 17.2426 4.75736C16.1174 3.63214 14.5913 3 13 3H9C7.4087 3 5.88258 3.63214 4.75736 4.75736C3.63214 5.88258 3 7.4087 3 9C3 12.61 5.462 14.966 11 17.48V15Z" fill="white" fill-opacity="0.6" stroke="black" stroke-width="0.4"/>
</svg>
