<svg width="22" height="22" viewBox="0 0 22 22" fill="none" xmlns="http://www.w3.org/2000/svg">
<path d="M19 10.9988C18.9998 9.21573 18.4039 7.48378 17.3069 6.07804C16.2099 4.67229 14.6747 3.67333 12.9451 3.23978C11.2155 2.80623 9.39066 2.96295 7.7603 3.68505C6.12993 4.40715 4.78755 5.65323 3.9463 7.22543C3.10505 8.79764 2.81317 10.6058 3.11701 12.3629C3.42084 14.1199 4.30297 15.7251 5.62332 16.9235C6.94367 18.1219 8.62655 18.8448 10.4047 18.9775C12.1829 19.1102 13.9544 18.645 15.438 17.6558L16.548 19.3198C14.6936 20.5564 12.4792 21.1381 10.2564 20.9723C8.03368 20.8066 5.93002 19.903 4.2795 18.405C2.62897 16.9071 1.52621 14.9007 1.14632 12.7044C0.766439 10.508 1.13121 8.24777 2.18271 6.28247C3.23421 4.31716 4.91216 2.75949 6.95011 1.8568C8.98806 0.954105 11.2692 0.758149 13.4312 1.30004C15.5933 1.84194 17.5123 3.09062 18.8836 4.8478C20.2548 6.60498 20.9998 8.76992 21 10.9988V12.4988C21.0014 13.2487 20.7619 13.9792 20.3168 14.5827C19.8717 15.1862 19.2446 15.6308 18.5278 15.851C17.811 16.0712 17.0424 16.0553 16.3353 15.8058C15.6281 15.5562 15.0199 15.0862 14.6 14.4648C13.9322 15.1585 13.0784 15.6446 12.141 15.8648C11.2036 16.0849 10.2226 16.0297 9.31586 15.7058C8.4091 15.3819 7.61516 14.8031 7.02941 14.0388C6.44367 13.2746 6.09105 12.3575 6.01392 11.3978C5.93679 10.438 6.13842 9.47633 6.5946 8.62837C7.05079 7.78042 7.7421 7.08222 8.5855 6.61766C9.42889 6.1531 10.3885 5.94194 11.349 6.00956C12.3095 6.07718 13.23 6.4207 14 6.99884H16V12.4988C16 12.8967 16.1581 13.2782 16.4394 13.5595C16.7207 13.8408 17.1022 13.9988 17.5 13.9988C17.8978 13.9988 18.2794 13.8408 18.5607 13.5595C18.842 13.2782 19 12.8967 19 12.4988V10.9988ZM11 7.99884C10.4067 7.99884 9.82665 8.17479 9.3333 8.50444C8.83996 8.83408 8.45544 9.30262 8.22838 9.85079C8.00131 10.399 7.9419 11.0022 8.05766 11.5841C8.17341 12.1661 8.45914 12.7006 8.87869 13.1202C9.29825 13.5397 9.8328 13.8254 10.4147 13.9412C10.9967 14.057 11.5999 13.9975 12.1481 13.7705C12.6962 13.5434 13.1648 13.1589 13.4944 12.6656C13.8241 12.1722 14 11.5922 14 10.9988C14 10.2032 13.6839 9.44013 13.1213 8.87752C12.5587 8.31491 11.7957 7.99884 11 7.99884Z" fill="white" fill-opacity="0.6" stroke="black" stroke-width="0.4"/>
</svg>
