<svg width="25" height="25" viewBox="0 0 25 25" fill="none" xmlns="http://www.w3.org/2000/svg">
<path d="M12.2375 0.00197664C9.15795 0.00184567 6.19154 1.16286 3.93021 3.25337C1.66888 5.34387 0.278906 8.21014 0.0376356 11.2803C-0.203635 14.3504 0.721539 17.3986 2.62856 19.8167C4.53557 22.2347 7.2842 23.8449 10.326 24.3258V15.774H7.21823V12.2341H10.326V9.54134C10.2592 8.91179 10.3317 8.27525 10.5383 7.67683C10.7449 7.0784 11.0805 6.53273 11.5215 6.07849C11.9625 5.62424 12.4979 5.27253 13.09 5.04827C13.682 4.82402 14.3161 4.73271 14.9474 4.78081C15.8647 4.79539 16.7798 4.87699 17.6853 5.02494V8.03017H16.1436C15.8806 7.99524 15.6131 8.01991 15.361 8.10237C15.1088 8.18483 14.8784 8.32296 14.6869 8.50653C14.4953 8.6901 14.3475 8.91441 14.2544 9.16284C14.1613 9.41127 14.1253 9.67747 14.1491 9.94171V12.2377H17.5425L17.0005 15.7776H14.1491V24.3295C17.1958 23.8538 19.9507 22.2454 21.8626 19.826C23.7745 17.4066 24.7024 14.3546 24.4609 11.2804C24.2193 8.20619 22.8261 5.33654 20.5597 3.24543C18.2934 1.15432 15.3212 -0.0040656 12.2375 0.00197664Z" fill="#FDCD4C"/>
</svg>
