<svg width="28" height="28" viewBox="0 0 28 28" fill="none" xmlns="http://www.w3.org/2000/svg">
<path fill-rule="evenodd" clip-rule="evenodd" d="M10.6936 7.58392C10.6936 9.623 9.0395 11.2784 6.99913 11.2784C4.95876 11.2784 3.30469 9.623 3.30469 7.58392C3.30469 5.54355 4.95876 3.88818 6.99913 3.88818C9.0395 3.88818 10.6936 5.54355 10.6936 7.58392Z" stroke="black" stroke-width="1.5" stroke-linecap="round" stroke-linejoin="round"/>
<path d="M15.8105 7.58369H24.6941" stroke="black" stroke-width="1.5" stroke-linecap="round" stroke-linejoin="round"/>
<path fill-rule="evenodd" clip-rule="evenodd" d="M17.3057 20.5016C17.3057 18.4612 18.9597 16.8071 21.0001 16.8071C23.0405 16.8071 24.6946 18.4612 24.6946 20.5016C24.6946 22.5419 23.0405 24.196 21.0001 24.196C18.9597 24.196 17.3057 22.5419 17.3057 20.5016Z" stroke="black" stroke-width="1.5" stroke-linecap="round" stroke-linejoin="round"/>
<path d="M12.1887 20.5012H3.30518" stroke="black" stroke-width="1.5" stroke-linecap="round" stroke-linejoin="round"/>
</svg>
