<svg width="60" height="40" viewBox="0 0 60 40" fill="none" xmlns="http://www.w3.org/2000/svg">
<g clip-path="url(#clip0)">
<path d="M45.7239 4.12061V10.7803H45.5343C45.5343 13.1258 39.2508 14.9635 31.7632 14.9635C28.878 15.027 25.9971 14.7072 23.1963 14.0124V14.2018C21.821 13.0154 20.2253 12.1109 18.5004 11.54V11.413L18.3108 4.37659C18.8191 6.53268 24.6568 8.2434 31.8278 8.2434C38.9988 8.2434 45.5343 6.40572 45.5343 4.12269L45.7239 4.12061Z" fill="#F4B844"/>
<path d="M31.9521 0C39.5043 0 45.7857 1.90219 45.7857 4.18315C45.7857 6.4641 39.4397 8.30384 31.9521 8.30384C24.4644 8.30384 18.8788 6.59314 18.3726 4.43705V4.18315C18.308 1.90219 24.3998 0 31.9521 0Z" fill="#FEDB41"/>
<path d="M33.0948 29.7943V35.12H31.826C29.0288 35.1737 26.236 34.8758 23.5133 34.2334L23.3237 34.044C25.0729 32.4604 26.3845 30.4536 27.1321 28.2168H27.4488C28.7822 28.3437 30.2405 28.4062 31.701 28.4062H33.0344L33.0948 29.7943Z" fill="#E2A63B"/>
<path d="M31.8882 21.4273L32.5132 21.7435C32.4618 21.8636 32.4404 21.9943 32.4507 22.1244C32.4626 22.32 32.5055 22.5125 32.5778 22.6946V28.653H31.8799C30.2944 28.653 28.7069 28.5906 27.311 28.4636H26.9985C27.4275 27.0676 27.6383 25.6138 27.6236 24.1536C27.6019 23.1979 27.5169 22.2447 27.3694 21.3003H27.6861C29.0965 21.4272 30.4924 21.4273 31.8882 21.4273Z" fill="#F4B844"/>
<path d="M23.1937 14.0084C25.9945 14.7033 28.8754 15.0231 31.7606 14.9595C39.2482 14.9595 45.5317 13.1218 45.5317 10.7764H45.7213V18.2561C38.7399 18.2561 33.0294 19.9044 32.3314 22.0022L31.7606 21.6858C30.4272 21.6858 29.1584 21.6234 27.8251 21.4965H27.5084C26.8831 18.6379 25.3482 16.0584 23.1333 14.1437L23.1937 14.0084Z" fill="#E2A63B"/>
<path d="M59.6842 29.0972V35.8172C59.6842 38.1065 53.5278 40.0004 46.0402 40.0004C38.5525 40.0004 32.5857 38.1627 32.5857 35.8796V29.7943C33.6003 31.759 39.1212 33.2803 45.786 33.2803C52.4507 33.2803 59.4925 31.3781 59.4925 29.0972H59.6842Z" fill="#E2A63B"/>
<path d="M59.6828 22.5034V29.0965H59.4933C59.4933 31.3858 53.2744 33.2797 45.7867 33.2797C38.2991 33.2797 33.6032 31.7584 32.4531 29.7938V22.8822C33.2865 24.9738 38.9887 26.5596 45.843 26.5596C52.6973 26.5596 59.3599 24.7219 59.5495 22.5034H59.6828Z" fill="#F4B844"/>
<path d="M32.2693 22.8854C32.1973 22.725 32.1543 22.553 32.1422 22.3776C32.1318 22.2475 32.1533 22.1168 32.2047 21.9968C32.9026 19.9052 38.6778 18.1924 45.7217 18.1924H45.7863C53.3385 18.1924 59.6844 20.0301 59.6844 22.3755V22.5025C59.4949 24.721 53.2114 26.6232 45.7863 26.6232C38.3611 26.6232 33.0943 24.977 32.2693 22.8854Z" fill="#FEDB41"/>
<path d="M27.8279 21.4908C27.9755 22.3926 28.0604 23.3036 28.0821 24.2171C28.0882 25.5896 27.8959 26.9557 27.5112 28.2733C26.7593 30.5608 25.4254 32.614 23.6403 34.2317C21.1707 36.5167 17.9293 37.7876 14.563 37.7905C12.7617 37.9366 10.9492 37.7237 9.23086 37.1642C7.51252 36.6048 5.92258 35.7099 4.55336 34.5315C3.18413 33.3531 2.06292 31.9147 1.25482 30.2998C0.446718 28.6849 -0.032162 26.9258 -0.154012 25.1246C-0.275862 23.3233 -0.0382547 21.5158 0.545013 19.807C1.12828 18.0982 2.04558 16.5222 3.24365 15.1705C4.44172 13.8188 5.89669 12.7184 7.52405 11.9331C9.15141 11.1477 10.9187 10.6932 12.7234 10.5959C13.3566 10.5325 13.9945 10.5325 14.6276 10.5959C15.98 10.5895 17.3263 10.7767 18.6256 11.1516C20.3994 11.7296 22.0393 12.6566 23.4487 13.8779C25.6406 15.9186 27.1666 18.5714 27.8279 21.4908Z" fill="#FEDB41"/>
<path d="M13.9919 30.9967C17.7417 30.9967 20.7816 27.96 20.7816 24.2142C20.7816 20.4683 17.7417 17.4316 13.9919 17.4316C10.242 17.4316 7.20215 20.4683 7.20215 24.2142C7.20215 27.96 10.242 30.9967 13.9919 30.9967Z" fill="#F4B844"/>
</g>
<defs>
<clipPath id="clip0">
<rect width="59.6825" height="40" fill="white"/>
</clipPath>
</defs>
</svg>
