<svg width="24" height="24" viewBox="0 0 24 24" fill="none" xmlns="http://www.w3.org/2000/svg">
<g id="Iconly/Light-outline/Info Circle">
<g id="Info Circle">
<path id="Info Circle_2" fill-rule="evenodd" clip-rule="evenodd" d="M22 12C22 17.5222 17.5222 22 12 22C6.47712 22 2 17.5225 2 12C2 6.47745 6.47712 2 12 2C17.5222 2 22 6.47779 22 12ZM3.5 12C3.5 16.6941 7.30557 20.5 12 20.5C16.6938 20.5 20.5 16.6938 20.5 12C20.5 7.30621 16.6938 3.5 12 3.5C7.30557 3.5 3.5 7.30585 3.5 12ZM12.0049 16.5459C11.6252 16.5459 11.3114 16.2637 11.2617 15.8977L11.2549 15.7959L11.2549 11.3769C11.2549 10.9627 11.5907 10.6269 12.0049 10.6269C12.3846 10.6269 12.6984 10.9091 12.7481 11.2751L12.7549 11.3769L12.7549 15.7959C12.7549 16.2101 12.4191 16.5459 12.0049 16.5459ZM11.2449 8.2041C11.2449 8.61831 11.5807 8.9541 11.9949 8.9541L12.1067 8.94725C12.4727 8.89759 12.7549 8.58379 12.7549 8.2041C12.7549 7.78989 12.4191 7.4541 12.0049 7.4541L11.8931 7.46095C11.5271 7.51061 11.2449 7.8244 11.2449 8.2041Z" fill="black"/>
</g>
</g>
</svg>
