<svg width="26" height="25" viewBox="0 0 26 25" fill="none" xmlns="http://www.w3.org/2000/svg">
<path opacity="" d="M13.0199 0.00244141C16.3364 0.00244141 16.7502 0.0146478 18.0515 0.0756802C19.0643 0.0965912 20.0663 0.288493 21.0152 0.643281C21.8304 0.948589 22.5688 1.42901 23.1782 2.05069C23.7989 2.66088 24.2791 3.399 24.5856 4.21367C24.9399 5.16269 25.1318 6.16462 25.1532 7.1774C25.2106 8.47861 25.2264 8.89241 25.2264 12.2089C25.2264 15.5254 25.2142 15.9392 25.1532 17.2404C25.1317 18.2532 24.9398 19.2551 24.5856 20.2041C24.2725 21.0154 23.793 21.7522 23.1781 22.3671C22.5632 22.982 21.8265 23.4614 21.0152 23.7745C20.0662 24.1289 19.0642 24.3208 18.0515 24.3421C16.7502 24.3995 16.3425 24.4154 13.0199 24.4154C9.69735 24.4154 9.28965 24.4032 7.98844 24.3421C6.97567 24.3206 5.97376 24.1287 5.02471 23.7745C4.21343 23.4614 3.47666 22.982 2.86176 22.3671C2.24686 21.7522 1.76743 21.0154 1.45432 20.2041C1.09939 19.2553 0.907486 18.2533 0.886715 17.2404C0.829345 15.9392 0.813477 15.5254 0.813477 12.2089C0.813477 8.89241 0.825683 8.47861 0.886715 7.1774C0.907486 6.16456 1.09939 5.16252 1.45432 4.21367C1.75977 3.3985 2.24017 2.66018 2.86172 2.05069C3.47172 1.42975 4.20989 0.949439 5.02471 0.643281C5.97356 0.288357 6.9756 0.0964509 7.98844 0.0756802C9.28965 0.0183098 9.70345 0.00244141 13.0199 0.00244141ZM13.0199 6.10568C11.8128 6.10568 10.6328 6.46363 9.62917 7.13426C8.6255 7.80489 7.84323 8.75809 7.38129 9.87331C6.91935 10.9885 6.79849 12.2157 7.03398 13.3996C7.26948 14.5835 7.85076 15.671 8.70431 16.5246C9.55786 17.3781 10.6454 17.9594 11.8293 18.1949C13.0132 18.4304 14.2403 18.3095 15.3556 17.8476C16.4708 17.3856 17.424 16.6034 18.0946 15.5997C18.7652 14.596 19.1232 13.416 19.1232 12.2089C19.1232 10.5902 18.4802 9.03785 17.3356 7.89327C16.191 6.74869 14.6386 6.10568 13.0199 6.10568ZM20.9542 5.80052C20.9542 5.49874 20.8647 5.20374 20.697 4.95282C20.5294 4.7019 20.291 4.50634 20.0122 4.39085C19.7334 4.27537 19.4267 4.24515 19.1307 4.30402C18.8347 4.3629 18.5628 4.50822 18.3494 4.72161C18.136 4.93499 17.9907 5.20687 17.9319 5.50284C17.873 5.79882 17.9032 6.10561 18.0187 6.38442C18.1342 6.66322 18.3297 6.90152 18.5807 7.06918C18.8316 7.23684 19.1266 7.32632 19.4283 7.32632C19.833 7.32632 20.2211 7.16557 20.5073 6.87943C20.7934 6.59328 20.9542 6.20518 20.9542 5.80052ZM13.0199 8.54697C13.7442 8.54697 14.4522 8.76174 15.0544 9.16412C15.6566 9.5665 16.126 10.1384 16.4031 10.8075C16.6803 11.4767 16.7528 12.213 16.6115 12.9233C16.4702 13.6337 16.1215 14.2862 15.6093 14.7983C15.0972 15.3104 14.4447 15.6592 13.7344 15.8005C13.024 15.9418 12.2877 15.8693 11.6186 15.5921C10.9495 15.3149 10.3775 14.8456 9.97515 14.2434C9.57278 13.6412 9.35801 12.9332 9.35801 12.2089C9.35801 11.2377 9.74382 10.3063 10.4306 9.61953C11.1173 8.93278 12.0487 8.54697 13.0199 8.54697Z" fill="#FDCD4C"/>
</svg>
