<svg width="65" height="70" viewBox="0 0 65 70" fill="none" xmlns="http://www.w3.org/2000/svg">
<g clip-path="url(#clip0)">
<path d="M80.4429 7.21094V18.8655H80.1094C80.1094 22.9701 69.0548 26.186 55.8817 26.186C50.8058 26.2972 45.7375 25.7375 40.81 24.5215V24.853C38.3903 22.7768 35.5831 21.194 32.5484 20.1948V19.9726L32.2148 7.65891C33.1092 11.4321 43.3794 14.4258 55.9954 14.4258C68.6113 14.4258 80.1094 11.2099 80.1094 7.21458L80.4429 7.21094Z" fill="#F4B844"/>
<path d="M56.2136 0C69.5004 0 80.5513 3.32883 80.5513 7.32051C80.5513 11.3122 69.3867 14.5317 56.2136 14.5317C43.0405 14.5317 33.2138 11.538 32.3232 7.76484V7.32051C32.2095 3.32883 42.9269 0 56.2136 0Z" fill="#FEDB41"/>
<path d="M58.2234 52.1405V61.4605H55.9913C51.0703 61.5544 46.1568 61.0332 41.3667 59.909L41.0332 59.5775C44.1105 56.8062 46.418 53.2943 47.7333 49.3799H48.2905C50.6363 49.602 53.202 49.7113 55.7714 49.7113H58.1172L58.2234 52.1405Z" fill="#E2A63B"/>
<path d="M56.1015 37.4985L57.2011 38.0521C57.1106 38.2621 57.0729 38.4909 57.0911 38.7186C57.1121 39.0609 57.1875 39.3977 57.3147 39.7165V50.1437H56.0868C53.2975 50.1437 50.5046 50.0344 48.0488 49.8122H47.499C48.2536 47.3691 48.6245 44.8251 48.5986 42.2696C48.5605 40.5972 48.4111 38.9292 48.1514 37.2764H48.7086C51.19 37.4985 53.6457 37.4985 56.1015 37.4985Z" fill="#F4B844"/>
<path d="M40.8046 24.5155C45.7321 25.7314 50.8004 26.2911 55.8763 26.1799C69.0494 26.1799 80.104 22.964 80.104 18.8594H80.4375V31.9489C68.155 31.9489 58.1085 34.8334 56.8806 38.5046L55.8763 37.951C53.5305 37.951 51.2983 37.8417 48.9525 37.6195H48.3954C47.2953 32.6171 44.595 28.1029 40.6982 24.7522L40.8046 24.5155Z" fill="#E2A63B"/>
<path d="M105.002 50.9209V62.6809C105.002 66.6872 94.1708 70.0015 80.9977 70.0015C67.8246 70.0015 57.3271 66.7855 57.3271 62.7902V52.1409C59.1122 55.579 68.8252 58.2413 80.5505 58.2413C92.2758 58.2413 104.665 54.9126 104.665 50.9209H105.002Z" fill="#E2A63B"/>
<path d="M105 39.3809V50.9188H104.667C104.667 54.9251 93.7258 58.2394 80.5527 58.2394C67.3796 58.2394 59.118 55.5771 57.0947 52.139V40.0437C58.5608 43.704 68.5928 46.4792 80.6517 46.4792C92.7105 46.4792 104.432 43.2633 104.766 39.3809H105Z" fill="#F4B844"/>
<path d="M56.773 40.0487C56.6464 39.7679 56.5706 39.4671 56.5494 39.1601C56.5311 38.9323 56.5689 38.7036 56.6594 38.4936C57.8872 34.8333 68.0475 31.8359 80.4399 31.8359H80.5535C93.8402 31.8359 105.005 35.0519 105.005 39.1565V39.3786C104.671 43.261 93.6167 46.5899 80.5535 46.5899C67.4904 46.5899 58.2245 43.709 56.773 40.0487Z" fill="#FEDB41"/>
<path d="M48.9583 37.6083C49.2179 39.1865 49.3673 40.7807 49.4054 42.3794C49.4162 44.7812 49.0779 47.1719 48.4011 49.4777C47.0782 53.4808 44.7316 57.0738 41.591 59.9048C37.2461 63.9037 31.5436 66.1276 25.6213 66.1327C22.4521 66.3884 19.2634 66.0159 16.2403 65.0368C13.2172 64.0577 10.42 62.4916 8.01114 60.4294C5.60225 58.3673 3.62969 55.8501 2.20799 53.0241C0.786294 50.198 -0.0562031 47.1196 -0.270575 43.9674C-0.484947 40.8151 -0.0669221 37.652 0.959225 34.6616C1.98537 31.6713 3.59919 28.9133 5.70697 26.5478C7.81474 24.1823 10.3745 22.2565 13.2375 20.8822C16.1005 19.5079 19.2098 18.7125 22.3848 18.5422C23.4987 18.4312 24.621 18.4312 25.7349 18.5422C28.1142 18.5311 30.4828 18.8586 32.7686 19.5146C35.8892 20.5262 38.7743 22.1484 41.2538 24.2857C45.1101 27.857 47.7948 32.4994 48.9583 37.6083Z" fill="#FEDB41"/>
<path d="M24.6161 54.2447C31.2133 54.2447 36.5614 48.9306 36.5614 42.3753C36.5614 35.82 31.2133 30.5059 24.6161 30.5059C18.019 30.5059 12.6709 35.82 12.6709 42.3753C12.6709 48.9306 18.019 54.2447 24.6161 54.2447Z" fill="#F4B844"/>
</g>
<defs>
<clipPath id="clip0">
<rect width="105" height="70" fill="white"/>
</clipPath>
</defs>
</svg>
