<svg width="51" height="34" viewBox="0 0 51 34" fill="none" xmlns="http://www.w3.org/2000/svg">
<g clip-path="url(#clip0)">
<path d="M38.8656 3.50293V9.16371H38.7044C38.7044 11.1574 33.3635 12.7194 26.999 12.7194C24.5466 12.7734 22.0978 12.5015 19.7171 11.9109V12.0719C18.5481 11.0635 17.1918 10.2947 15.7256 9.80939V9.70147L15.5645 3.72052C15.9965 5.55319 20.9585 7.00731 27.0539 7.00731C33.1492 7.00731 38.7044 5.44528 38.7044 3.5047L38.8656 3.50293Z" fill="#F4B844"/>
<path d="M27.1592 0C33.5786 0 38.9178 1.61686 38.9178 3.55568C38.9178 5.49449 33.5237 7.05827 27.1592 7.05827C20.7947 7.05827 16.047 5.60417 15.6166 3.77149V3.55568C15.5617 1.61686 20.7398 0 27.1592 0Z" fill="#FEDB41"/>
<path d="M28.1306 25.3253V29.8521H27.0521C24.6745 29.8977 22.3007 29.6446 19.9863 29.0985L19.8252 28.9375C21.312 27.5914 22.4268 25.8856 23.0623 23.9844H23.3315C24.4649 24.0923 25.7045 24.1454 26.9459 24.1454H28.0792L28.1306 25.3253Z" fill="#E2A63B"/>
<path d="M27.1055 18.2134L27.6367 18.4822C27.593 18.5842 27.5748 18.6954 27.5836 18.806C27.5937 18.9722 27.6302 19.1358 27.6916 19.2907V24.3553H27.0984C25.7507 24.3553 24.4013 24.3022 23.2148 24.1943H22.9492C23.3138 23.0077 23.493 21.772 23.4805 20.5308C23.4621 19.7185 23.3899 18.9083 23.2644 18.1055H23.5336C24.7325 18.2134 25.919 18.2134 27.1055 18.2134Z" fill="#F4B844"/>
<path d="M19.7145 11.9074C22.0951 12.498 24.5439 12.7699 26.9963 12.7158C33.3608 12.7158 38.7017 11.1538 38.7017 9.16016H38.8629V15.5179C32.9287 15.5179 28.0747 16.919 27.4815 18.7021L26.9963 18.4332C25.8629 18.4332 24.7844 18.3801 23.6511 18.2722H23.3819C22.8504 15.8425 21.5458 13.6499 19.6631 12.0224L19.7145 11.9074Z" fill="#E2A63B"/>
<path d="M50.731 24.7324V30.4444C50.731 32.3903 45.4981 34.0001 39.1336 34.0001C32.7691 34.0001 27.6973 32.4381 27.6973 30.4975V25.325C28.5597 26.9949 33.2525 28.2881 38.9175 28.2881C44.5825 28.2881 50.5681 26.6712 50.5681 24.7324H50.731Z" fill="#E2A63B"/>
<path d="M50.7302 19.1279V24.7321H50.5691C50.5691 26.678 45.283 28.2878 38.9185 28.2878C32.554 28.2878 28.5625 26.9947 27.585 25.3247V19.4499C28.2933 21.2277 33.1402 22.5757 38.9664 22.5757C44.7925 22.5757 50.4557 21.0137 50.6169 19.1279H50.7302Z" fill="#F4B844"/>
<path d="M27.4295 19.452C27.3683 19.3156 27.3318 19.1694 27.3215 19.0203C27.3127 18.9097 27.3309 18.7986 27.3746 18.6966C27.9679 16.9188 32.8767 15.4629 38.864 15.4629H38.919C45.3384 15.4629 50.7324 17.0249 50.7324 19.0186V19.1265C50.5713 21.0122 45.2303 22.6291 38.919 22.6291C32.6076 22.6291 28.1308 21.2298 27.4295 19.452Z" fill="#FEDB41"/>
<path d="M23.6538 18.2669C23.7792 19.0335 23.8514 19.8078 23.8698 20.5843C23.875 21.7509 23.7116 22.9121 23.3846 24.0321C22.7455 25.9764 21.6117 27.7216 20.0943 29.0967C17.9952 31.039 15.24 32.1192 12.3787 32.1217C10.8475 32.2458 9.30688 32.0649 7.8463 31.5893C6.38572 31.1138 5.03427 30.3531 3.87043 29.3515C2.70659 28.3498 1.75355 27.1272 1.06667 25.7546C0.379783 24.3819 -0.0272645 22.8867 -0.130837 21.3556C-0.23441 19.8245 -0.0324433 18.2881 0.463334 16.8357C0.959111 15.3832 1.73882 14.0436 2.75718 12.8947C3.77554 11.7457 5.01226 10.8103 6.39552 10.1428C7.77878 9.47531 9.28101 9.08898 10.815 9.00625C11.3532 8.95235 11.8954 8.95235 12.4336 9.00625C13.5831 9.00085 14.7275 9.1599 15.8319 9.47856C17.3396 9.96987 18.7335 10.7578 19.9314 11.7959C21.7946 13.5306 23.0917 15.7855 23.6538 18.2669Z" fill="#FEDB41"/>
<path d="M11.8933 26.3477C15.0807 26.3477 17.6646 23.7665 17.6646 20.5825C17.6646 17.3985 15.0807 14.8174 11.8933 14.8174C8.70596 14.8174 6.12207 17.3985 6.12207 20.5825C6.12207 23.7665 8.70596 26.3477 11.8933 26.3477Z" fill="#F4B844"/>
</g>
<defs>
<clipPath id="clip0">
<rect width="50.7302" height="34" fill="white"/>
</clipPath>
</defs>
</svg>
