<svg width="24" height="24" viewBox="0 0 24 24" fill="none" xmlns="http://www.w3.org/2000/svg">
<g id="Iconly/Light-outline/Password">
<g id="Password">
<path id="Password_2" fill-rule="evenodd" clip-rule="evenodd" d="M16.3345 2H7.66549C4.26791 2 2.00049 4.4326 2.00049 7.916V16.084C2.00049 19.5707 4.26186 22 7.66549 22H16.3335C19.7381 22 22.0005 19.5707 22.0005 16.084V7.916C22.0005 4.4295 19.7383 2 16.3345 2ZM7.66549 3.5H16.3345C18.885 3.5 20.5005 5.23496 20.5005 7.916V16.084C20.5005 18.7652 18.8849 20.5 16.3335 20.5H7.66549C5.11525 20.5 3.50049 18.7653 3.50049 16.084V7.916C3.50049 5.23837 5.12083 3.5 7.66549 3.5ZM8.84039 9.398C7.40424 9.398 6.23939 10.5637 6.23939 12C6.23939 13.4363 7.40424 14.602 8.84039 14.602C10.0165 14.602 11.0106 13.8211 11.3326 12.75L13.4317 12.7499V13.8515L13.4385 13.9533C13.4882 14.3193 13.802 14.6015 14.1817 14.6015C14.5959 14.6015 14.9317 14.2657 14.9317 13.8515V12.7498L16.2601 12.7498L16.2604 13.852L16.2672 13.9538C16.3169 14.3198 16.6307 14.602 17.0104 14.602C17.4246 14.602 17.7604 14.2662 17.7604 13.852V12L17.7535 11.8982C17.7039 11.5322 17.3901 11.25 17.0104 11.25H14.2093C14.2002 11.2497 14.1909 11.2495 14.1817 11.2495C14.1724 11.2495 14.1632 11.2497 14.1541 11.25H11.3326C11.0105 10.1788 10.0165 9.398 8.84039 9.398ZM8.84039 10.898C9.44877 10.898 9.94239 11.3918 9.94239 12C9.94239 12.6082 9.44877 13.102 8.84039 13.102C8.23292 13.102 7.73939 12.6081 7.73939 12C7.73939 11.3919 8.23292 10.898 8.84039 10.898Z" fill="#FF4851"/>
</g>
</g>
</svg>
