<svg width="25" height="24" viewBox="0 0 25 24" fill="none" xmlns="http://www.w3.org/2000/svg">
<path fill-rule="evenodd" clip-rule="evenodd" d="M11.6774 2C6.33891 2 2.01123 6.20819 2.01123 11.3993C2.01123 16.5903 6.33891 20.7985 11.6774 20.7985C13.9606 20.7985 16.059 20.0287 17.7129 18.7415L20.8548 21.7887L20.9384 21.8586C21.2301 22.0685 21.6436 22.0446 21.9076 21.7873C22.1979 21.5043 22.1973 21.0459 21.9062 20.7636L18.8013 17.7523C20.38 16.0794 21.3435 13.8487 21.3435 11.3993C21.3435 6.20819 17.0159 2 11.6774 2ZM11.6774 3.44774C16.1936 3.44774 19.8547 7.00776 19.8547 11.3993C19.8547 15.7908 16.1936 19.3508 11.6774 19.3508C7.16119 19.3508 3.50009 15.7908 3.50009 11.3993C3.50009 7.00776 7.16119 3.44774 11.6774 3.44774Z" fill="#999999"/>
</svg>
