<svg width="140" height="140" viewBox="0 0 140 140" fill="none" xmlns="http://www.w3.org/2000/svg">
<rect x="0.25" y="0.25" width="139.5" height="139.5" rx="17.75" fill="white" stroke="#C4C4C4" stroke-width="0.5"/>
<path d="M33.7678 96.0042H28.6798L27.7038 98.6602H26.5198L30.5998 87.6202H31.8638L35.9278 98.6602H34.7438L33.7678 96.0042ZM33.4318 95.0762L31.2238 89.0282L29.0158 95.0762H33.4318ZM37.2133 94.2762C37.2133 93.3802 37.3946 92.5962 37.7573 91.9242C38.12 91.2415 38.616 90.7188 39.2453 90.3562C39.8853 89.9828 40.6053 89.7962 41.4053 89.7962C42.1733 89.7962 42.8666 89.9828 43.4853 90.3562C44.104 90.7295 44.5573 91.2148 44.8453 91.8122V86.8202H45.9653V98.6602H44.8453V96.7082C44.5786 97.3162 44.1413 97.8175 43.5333 98.2122C42.9253 98.5962 42.2106 98.7882 41.3893 98.7882C40.5893 98.7882 39.8693 98.6015 39.2293 98.2282C38.6 97.8548 38.104 97.3268 37.7413 96.6442C37.3893 95.9615 37.2133 95.1722 37.2133 94.2762ZM44.8453 94.2922C44.8453 93.5882 44.7013 92.9695 44.4133 92.4362C44.1253 91.9028 43.7306 91.4922 43.2293 91.2042C42.7386 90.9162 42.1946 90.7722 41.5973 90.7722C40.9786 90.7722 40.424 90.9108 39.9333 91.1882C39.4426 91.4655 39.0533 91.8708 38.7653 92.4042C38.488 92.9268 38.3493 93.5508 38.3493 94.2762C38.3493 94.9908 38.488 95.6202 38.7653 96.1642C39.0533 96.6975 39.4426 97.1082 39.9333 97.3962C40.424 97.6735 40.9786 97.8122 41.5973 97.8122C42.1946 97.8122 42.7386 97.6682 43.2293 97.3802C43.7306 97.0922 44.1253 96.6815 44.4133 96.1482C44.7013 95.6148 44.8453 94.9962 44.8453 94.2922ZM48.0102 94.2762C48.0102 93.3802 48.1915 92.5962 48.5542 91.9242C48.9169 91.2415 49.4129 90.7188 50.0422 90.3562C50.6822 89.9828 51.4022 89.7962 52.2022 89.7962C52.9702 89.7962 53.6635 89.9828 54.2822 90.3562C54.9009 90.7295 55.3542 91.2148 55.6422 91.8122V86.8202H56.7622V98.6602H55.6422V96.7082C55.3755 97.3162 54.9382 97.8175 54.3302 98.2122C53.7222 98.5962 53.0075 98.7882 52.1862 98.7882C51.3862 98.7882 50.6662 98.6015 50.0262 98.2282C49.3969 97.8548 48.9009 97.3268 48.5382 96.6442C48.1862 95.9615 48.0102 95.1722 48.0102 94.2762ZM55.6422 94.2922C55.6422 93.5882 55.4982 92.9695 55.2102 92.4362C54.9222 91.9028 54.5275 91.4922 54.0262 91.2042C53.5355 90.9162 52.9915 90.7722 52.3942 90.7722C51.7755 90.7722 51.2209 90.9108 50.7302 91.1882C50.2395 91.4655 49.8502 91.8708 49.5622 92.4042C49.2849 92.9268 49.1462 93.5508 49.1462 94.2762C49.1462 94.9908 49.2849 95.6202 49.5622 96.1642C49.8502 96.6975 50.2395 97.1082 50.7302 97.3962C51.2209 97.6735 51.7755 97.8122 52.3942 97.8122C52.9915 97.8122 53.5355 97.6682 54.0262 97.3802C54.5275 97.0922 54.9222 96.6815 55.2102 96.1482C55.4982 95.6148 55.6422 94.9962 55.6422 94.2922ZM64.2697 88.2762C64.0457 88.2762 63.8537 88.1962 63.6937 88.0362C63.5337 87.8762 63.4537 87.6788 63.4537 87.4442C63.4537 87.2095 63.5337 87.0175 63.6937 86.8682C63.8537 86.7082 64.0457 86.6282 64.2697 86.6282C64.4937 86.6282 64.6857 86.7082 64.8457 86.8682C65.0057 87.0175 65.0857 87.2095 65.0857 87.4442C65.0857 87.6788 65.0057 87.8762 64.8457 88.0362C64.6857 88.1962 64.4937 88.2762 64.2697 88.2762ZM64.8297 89.9242V98.6602H63.7097V89.9242H64.8297ZM77.7659 89.7642C78.7899 89.7642 79.6219 90.0895 80.2619 90.7402C80.9126 91.3802 81.2379 92.3135 81.2379 93.5402V98.6602H80.1339V93.6682C80.1339 92.7188 79.9046 91.9935 79.4459 91.4922C78.9873 90.9908 78.3633 90.7402 77.5739 90.7402C76.7526 90.7402 76.0966 91.0122 75.6059 91.5562C75.1153 92.1002 74.8699 92.8895 74.8699 93.9242V98.6602H73.7659V93.6682C73.7659 92.7188 73.5366 91.9935 73.0779 91.4922C72.6193 90.9908 71.9899 90.7402 71.1899 90.7402C70.3686 90.7402 69.7126 91.0122 69.2219 91.5562C68.7313 92.1002 68.4859 92.8895 68.4859 93.9242V98.6602H67.3659V89.9242H68.4859V91.4282C68.7633 90.8842 69.1579 90.4735 69.6699 90.1962C70.1819 89.9082 70.7526 89.7642 71.3819 89.7642C72.1393 89.7642 72.8006 89.9455 73.3659 90.3082C73.9419 90.6708 74.3579 91.2042 74.6139 91.9082C74.8486 91.2148 75.2486 90.6868 75.8139 90.3242C76.3899 89.9508 77.0406 89.7642 77.7659 89.7642ZM83.2133 94.2762C83.2133 93.3802 83.3893 92.5962 83.7413 91.9242C84.104 91.2415 84.6 90.7188 85.2293 90.3562C85.8693 89.9828 86.5893 89.7962 87.3893 89.7962C88.2213 89.7962 88.936 89.9882 89.5333 90.3722C90.1413 90.7562 90.5786 91.2468 90.8453 91.8442V89.9242H91.9653V98.6602H90.8453V96.7242C90.568 97.3215 90.1253 97.8175 89.5173 98.2122C88.92 98.5962 88.2053 98.7882 87.3733 98.7882C86.584 98.7882 85.8693 98.6015 85.2293 98.2282C84.6 97.8548 84.104 97.3268 83.7413 96.6442C83.3893 95.9615 83.2133 95.1722 83.2133 94.2762ZM90.8453 94.2922C90.8453 93.5882 90.7013 92.9695 90.4133 92.4362C90.1253 91.9028 89.7306 91.4922 89.2293 91.2042C88.7386 90.9162 88.1946 90.7722 87.5973 90.7722C86.9786 90.7722 86.424 90.9108 85.9333 91.1882C85.4426 91.4655 85.0533 91.8708 84.7653 92.4042C84.488 92.9268 84.3493 93.5508 84.3493 94.2762C84.3493 94.9908 84.488 95.6202 84.7653 96.1642C85.0533 96.6975 85.4426 97.1082 85.9333 97.3962C86.424 97.6735 86.9786 97.8122 87.5973 97.8122C88.1946 97.8122 88.7386 97.6682 89.2293 97.3802C89.7306 97.0922 90.1253 96.6815 90.4133 96.1482C90.7013 95.6148 90.8453 94.9962 90.8453 94.2922ZM98.1862 89.7962C99.0075 89.7962 99.7222 89.9882 100.33 90.3722C100.938 90.7562 101.376 91.2415 101.642 91.8282V89.9242H102.762V98.8842C102.762 99.6842 102.586 100.393 102.234 101.012C101.893 101.631 101.413 102.105 100.794 102.436C100.176 102.777 99.4715 102.948 98.6822 102.948C97.5622 102.948 96.6289 102.681 95.8822 102.148C95.1462 101.615 94.6875 100.889 94.5062 99.9722H95.6102C95.8022 100.58 96.1649 101.065 96.6982 101.428C97.2422 101.791 97.9035 101.972 98.6822 101.972C99.2475 101.972 99.7542 101.849 100.202 101.604C100.65 101.369 101.002 101.017 101.258 100.548C101.514 100.079 101.642 99.5242 101.642 98.8842V96.7242C101.365 97.3215 100.922 97.8175 100.314 98.2122C99.7169 98.5962 99.0075 98.7882 98.1862 98.7882C97.3862 98.7882 96.6662 98.6015 96.0262 98.2282C95.3969 97.8548 94.9009 97.3268 94.5382 96.6442C94.1862 95.9615 94.0102 95.1722 94.0102 94.2762C94.0102 93.3802 94.1862 92.5962 94.5382 91.9242C94.9009 91.2415 95.3969 90.7188 96.0262 90.3562C96.6662 89.9828 97.3862 89.7962 98.1862 89.7962ZM101.642 94.2922C101.642 93.5882 101.498 92.9695 101.21 92.4362C100.922 91.9028 100.528 91.4922 100.026 91.2042C99.5355 90.9162 98.9915 90.7722 98.3942 90.7722C97.7755 90.7722 97.2209 90.9108 96.7302 91.1882C96.2395 91.4655 95.8502 91.8708 95.5622 92.4042C95.2849 92.9268 95.1462 93.5508 95.1462 94.2762C95.1462 94.9908 95.2849 95.6202 95.5622 96.1642C95.8502 96.6975 96.2395 97.1082 96.7302 97.3962C97.2209 97.6735 97.7755 97.8122 98.3942 97.8122C98.9915 97.8122 99.5355 97.6682 100.026 97.3802C100.528 97.0922 100.922 96.6815 101.21 96.1482C101.498 95.6148 101.642 94.9962 101.642 94.2922ZM113.223 93.8442C113.223 94.2282 113.212 94.5215 113.191 94.7242H105.943C105.975 95.3855 106.135 95.9508 106.423 96.4202C106.711 96.8895 107.09 97.2468 107.559 97.4922C108.028 97.7268 108.54 97.8442 109.095 97.8442C109.82 97.8442 110.428 97.6682 110.919 97.3162C111.42 96.9642 111.751 96.4895 111.911 95.8922H113.095C112.882 96.7455 112.423 97.4442 111.719 97.9882C111.026 98.5215 110.151 98.7882 109.095 98.7882C108.274 98.7882 107.538 98.6068 106.887 98.2442C106.236 97.8708 105.724 97.3482 105.351 96.6762C104.988 95.9935 104.807 95.1988 104.807 94.2922C104.807 93.3855 104.988 92.5908 105.351 91.9082C105.714 91.2255 106.22 90.7028 106.871 90.3402C107.522 89.9775 108.263 89.7962 109.095 89.7962C109.927 89.7962 110.652 89.9775 111.271 90.3402C111.9 90.7028 112.38 91.1935 112.711 91.8122C113.052 92.4202 113.223 93.0975 113.223 93.8442ZM112.087 93.8122C112.098 93.1615 111.964 92.6068 111.687 92.1482C111.42 91.6895 111.052 91.3428 110.583 91.1082C110.114 90.8735 109.602 90.7562 109.047 90.7562C108.215 90.7562 107.506 91.0228 106.919 91.5562C106.332 92.0895 106.007 92.8415 105.943 93.8122H112.087Z" fill="#858585"/>
<path d="M69.8302 64.7169V54.8302M69.8302 54.8302V44.9434M69.8302 54.8302H79.7169M69.8302 54.8302H59.9434" stroke="black" stroke-width="2" stroke-linecap="round"/>
<path d="M111.25 0.250001C116.264 0.250074 120.028 0.254324 123.021 0.503365C126.061 0.756279 128.284 1.26036 130.196 2.25556C133.427 3.93755 136.062 6.57289 137.744 9.80396C138.74 11.7157 139.244 13.9389 139.497 16.9789C139.75 20.022 139.75 23.8609 139.75 29V29.75H131C126.279 29.75 122.763 29.7495 120.061 29.3861C117.365 29.0237 115.516 28.3046 114.106 26.8943C112.695 25.484 111.976 23.6348 111.614 20.9394C111.251 18.2368 111.25 14.7211 111.25 10V0.250001Z" fill="white" stroke="#C4C4C4" stroke-width="0.5"/>
<path d="M121.833 19.6665L126 15.4998M126 15.4998L130.167 11.3332M126 15.4998L130.167 19.6665M126 15.4998L121.833 11.3332" stroke="black" stroke-width="0.8" stroke-linecap="round"/>
</svg>
