<svg width="23" height="16" viewBox="0 0 23 16" fill="none" xmlns="http://www.w3.org/2000/svg">
<path fill-rule="evenodd" clip-rule="evenodd" d="M0 8C0 7.76429 0.0847282 7.53823 0.235545 7.37155C0.386362 7.20487 0.590914 7.11124 0.804202 7.11124H19.7721L14.7105 1.51913C14.5595 1.35225 14.4746 1.1259 14.4746 0.889887C14.4746 0.653874 14.5595 0.427528 14.7105 0.260642C14.8615 0.0937555 15.0663 5.56065e-09 15.2798 0C15.4934 -5.56065e-09 15.6982 0.0937555 15.8492 0.260642L22.2828 7.37075C22.3577 7.45331 22.4171 7.55139 22.4577 7.65937C22.4982 7.76734 22.5191 7.8831 22.5191 8C22.5191 8.1169 22.4982 8.23266 22.4577 8.34063C22.4171 8.44861 22.3577 8.54669 22.2828 8.62924L15.8492 15.7394C15.6982 15.9062 15.4934 16 15.2798 16C15.0663 16 14.8615 15.9062 14.7105 15.7394C14.5595 15.5725 14.4746 15.3461 14.4746 15.1101C14.4746 14.8741 14.5595 14.6478 14.7105 14.4809L19.7721 8.88876H0.804202C0.590914 8.88876 0.386362 8.79513 0.235545 8.62845C0.0847282 8.46178 0 8.23571 0 8Z" fill="black"/>
</svg>
