<svg width="82" height="40" viewBox="0 0 82 40" fill="none" xmlns="http://www.w3.org/2000/svg">
<g clip-path="url(#clip0)">
<path d="M41.6801 32.5729L32.2973 39.4286C31.8017 39.7902 31.2043 39.9853 30.5908 39.986C29.9774 39.9866 29.3795 39.7927 28.8832 39.4322C28.3869 39.0717 28.0177 38.563 27.8286 37.9794C27.6396 37.3958 27.6404 36.7673 27.8311 36.1843L31.4487 25.1334L21.9992 18.3006C21.5026 17.9413 21.1325 17.434 20.9422 16.8513C20.7519 16.2687 20.751 15.6407 20.9398 15.0576C21.1285 14.4744 21.4972 13.9661 21.9928 13.6055C22.4884 13.2448 23.0856 13.0505 23.6985 13.0504H35.3582L38.9279 1.99952C39.1165 1.41612 39.4853 0.907498 39.9811 0.546755C40.4769 0.186013 41.0743 -0.00830078 41.6874 -0.00830078C42.3006 -0.00830078 42.898 0.186013 43.3938 0.546755C43.8896 0.907498 44.2583 1.41612 44.447 1.99952L48.0167 13.0504H59.6743C60.2872 13.0505 60.8844 13.2448 61.38 13.6055C61.8756 13.9661 62.2443 14.4744 62.433 15.0576C62.6218 15.6407 62.6209 16.2687 62.4306 16.8513C62.2403 17.434 61.8702 17.9413 61.3736 18.3006L51.9241 25.1334L55.5417 36.1843C55.7323 36.7673 55.7332 37.3958 55.5442 37.9794C55.3551 38.563 54.9859 39.0717 54.4896 39.4322C53.9933 39.7927 53.3954 39.9866 52.7819 39.986C52.1685 39.9853 51.571 39.7902 51.0755 39.4286L41.6801 32.5729Z" fill="#669E4F"/>
</g>
<defs>
<clipPath id="clip0">
<rect width="81.9975" height="40" fill="white"/>
</clipPath>
</defs>
</svg>
