<svg width="28" height="23" viewBox="0 0 28 23" fill="none" xmlns="http://www.w3.org/2000/svg">
<path d="M28 2.87216C26.9719 3.32698 25.8816 3.62567 24.7652 3.75835C25.942 3.05462 26.8226 1.94704 27.2432 0.642038C26.1378 1.29868 24.9282 1.76108 23.6667 2.00916C22.8193 1.10209 21.696 0.500426 20.4713 0.297745C19.2467 0.0950641 17.9894 0.302722 16.895 0.888427C15.8006 1.47413 14.9304 2.40505 14.4197 3.53643C13.909 4.6678 13.7865 5.93622 14.0712 7.14442C11.832 7.03204 9.64151 6.45006 7.64186 5.43625C5.64221 4.42244 3.8781 2.99946 2.46402 1.25969C1.74351 2.49998 1.5227 3.96822 1.84653 5.36557C2.17035 6.76293 3.01448 7.98437 4.20711 8.78131C3.31317 8.75298 2.43893 8.5115 1.65718 8.077V8.14658C1.65723 9.4468 2.10697 10.707 2.93013 11.7135C3.75329 12.72 4.8992 13.4108 6.17357 13.6688C5.344 13.8938 4.47412 13.9272 3.62974 13.7664C3.99012 14.8846 4.69095 15.8623 5.63423 16.5626C6.57751 17.263 7.71608 17.651 8.89073 17.6725C7.72303 18.5912 6.38564 19.2706 4.95508 19.672C3.52452 20.0733 2.02887 20.1886 0.553711 20.0113C3.12823 21.6655 6.12475 22.5431 9.18491 22.5392C11.2932 22.5538 13.3834 22.1493 15.334 21.3493C17.2847 20.5492 19.0569 19.3695 20.5477 17.8786C22.0386 16.3878 23.2183 14.6156 24.0184 12.6649C24.8185 10.7143 25.2229 8.62409 25.2083 6.51579C25.2083 6.27166 25.201 6.02753 25.1913 5.7834C26.2929 4.98634 27.2436 3.99926 27.9987 2.8685L28 2.87216Z" fill="#FDCD4C"/>
</svg>
