<svg width="430" height="252" viewBox="0 0 430 252" fill="none" xmlns="http://www.w3.org/2000/svg">
<rect x="0.25" y="0.466797" width="429.5" height="251.077" rx="11.75" fill="white" stroke="#C4C4C4" stroke-width="0.5"/>
<path d="M174.739 156.066H169.015L167.917 159.054H166.585L171.175 146.634H172.597L177.169 159.054H175.837L174.739 156.066ZM174.361 155.022L171.877 148.218L169.393 155.022H174.361ZM178.615 154.122C178.615 153.114 178.819 152.232 179.227 151.476C179.635 150.708 180.193 150.12 180.901 149.712C181.621 149.292 182.431 149.082 183.331 149.082C184.195 149.082 184.975 149.292 185.671 149.712C186.367 150.132 186.877 150.678 187.201 151.35V145.734H188.461V159.054H187.201V156.858C186.901 157.542 186.409 158.106 185.725 158.55C185.041 158.982 184.237 159.198 183.313 159.198C182.413 159.198 181.603 158.988 180.883 158.568C180.175 158.148 179.617 157.554 179.209 156.786C178.813 156.018 178.615 155.13 178.615 154.122ZM187.201 154.14C187.201 153.348 187.039 152.652 186.715 152.052C186.391 151.452 185.947 150.99 185.383 150.666C184.831 150.342 184.219 150.18 183.547 150.18C182.851 150.18 182.227 150.336 181.675 150.648C181.123 150.96 180.685 151.416 180.361 152.016C180.049 152.604 179.893 153.306 179.893 154.122C179.893 154.926 180.049 155.634 180.361 156.246C180.685 156.846 181.123 157.308 181.675 157.632C182.227 157.944 182.851 158.1 183.547 158.1C184.219 158.1 184.831 157.938 185.383 157.614C185.947 157.29 186.391 156.828 186.715 156.228C187.039 155.628 187.201 154.932 187.201 154.14ZM190.761 154.122C190.761 153.114 190.965 152.232 191.373 151.476C191.781 150.708 192.339 150.12 193.047 149.712C193.767 149.292 194.577 149.082 195.477 149.082C196.341 149.082 197.121 149.292 197.817 149.712C198.513 150.132 199.023 150.678 199.347 151.35V145.734H200.607V159.054H199.347V156.858C199.047 157.542 198.555 158.106 197.871 158.55C197.187 158.982 196.383 159.198 195.459 159.198C194.559 159.198 193.749 158.988 193.029 158.568C192.321 158.148 191.763 157.554 191.355 156.786C190.959 156.018 190.761 155.13 190.761 154.122ZM199.347 154.14C199.347 153.348 199.185 152.652 198.861 152.052C198.537 151.452 198.093 150.99 197.529 150.666C196.977 150.342 196.365 150.18 195.693 150.18C194.997 150.18 194.373 150.336 193.821 150.648C193.269 150.96 192.831 151.416 192.507 152.016C192.195 152.604 192.039 153.306 192.039 154.122C192.039 154.926 192.195 155.634 192.507 156.246C192.831 156.846 193.269 157.308 193.821 157.632C194.373 157.944 194.997 158.1 195.693 158.1C196.365 158.1 196.977 157.938 197.529 157.614C198.093 157.29 198.537 156.828 198.861 156.228C199.185 155.628 199.347 154.932 199.347 154.14ZM209.053 147.372C208.801 147.372 208.585 147.282 208.405 147.102C208.225 146.922 208.135 146.7 208.135 146.436C208.135 146.172 208.225 145.956 208.405 145.788C208.585 145.608 208.801 145.518 209.053 145.518C209.305 145.518 209.521 145.608 209.701 145.788C209.881 145.956 209.971 146.172 209.971 146.436C209.971 146.7 209.881 146.922 209.701 147.102C209.521 147.282 209.305 147.372 209.053 147.372ZM209.683 149.226V159.054H208.423V149.226H209.683ZM224.237 149.046C225.389 149.046 226.325 149.412 227.045 150.144C227.777 150.864 228.143 151.914 228.143 153.294V159.054H226.901V153.438C226.901 152.37 226.643 151.554 226.127 150.99C225.611 150.426 224.909 150.144 224.021 150.144C223.097 150.144 222.359 150.45 221.807 151.062C221.255 151.674 220.979 152.562 220.979 153.726V159.054H219.737V153.438C219.737 152.37 219.479 151.554 218.963 150.99C218.447 150.426 217.739 150.144 216.839 150.144C215.915 150.144 215.177 150.45 214.625 151.062C214.073 151.674 213.797 152.562 213.797 153.726V159.054H212.537V149.226H213.797V150.918C214.109 150.306 214.553 149.844 215.129 149.532C215.705 149.208 216.347 149.046 217.055 149.046C217.907 149.046 218.651 149.25 219.287 149.658C219.935 150.066 220.403 150.666 220.691 151.458C220.955 150.678 221.405 150.084 222.041 149.676C222.689 149.256 223.421 149.046 224.237 149.046ZM230.365 154.122C230.365 153.114 230.563 152.232 230.959 151.476C231.367 150.708 231.925 150.12 232.633 149.712C233.353 149.292 234.163 149.082 235.063 149.082C235.999 149.082 236.803 149.298 237.475 149.73C238.159 150.162 238.651 150.714 238.951 151.386V149.226H240.211V159.054H238.951V156.876C238.639 157.548 238.141 158.106 237.457 158.55C236.785 158.982 235.981 159.198 235.045 159.198C234.157 159.198 233.353 158.988 232.633 158.568C231.925 158.148 231.367 157.554 230.959 156.786C230.563 156.018 230.365 155.13 230.365 154.122ZM238.951 154.14C238.951 153.348 238.789 152.652 238.465 152.052C238.141 151.452 237.697 150.99 237.133 150.666C236.581 150.342 235.969 150.18 235.297 150.18C234.601 150.18 233.977 150.336 233.425 150.648C232.873 150.96 232.435 151.416 232.111 152.016C231.799 152.604 231.643 153.306 231.643 154.122C231.643 154.926 231.799 155.634 232.111 156.246C232.435 156.846 232.873 157.308 233.425 157.632C233.977 157.944 234.601 158.1 235.297 158.1C235.969 158.1 236.581 157.938 237.133 157.614C237.697 157.29 238.141 156.828 238.465 156.228C238.789 155.628 238.951 154.932 238.951 154.14ZM247.209 149.082C248.133 149.082 248.937 149.298 249.621 149.73C250.305 150.162 250.797 150.708 251.097 151.368V149.226H252.357V159.306C252.357 160.206 252.159 161.004 251.763 161.7C251.379 162.396 250.839 162.93 250.143 163.302C249.447 163.686 248.655 163.878 247.767 163.878C246.507 163.878 245.457 163.578 244.617 162.978C243.789 162.378 243.273 161.562 243.069 160.53H244.311C244.527 161.214 244.935 161.76 245.535 162.168C246.147 162.576 246.891 162.78 247.767 162.78C248.403 162.78 248.973 162.642 249.477 162.366C249.981 162.102 250.377 161.706 250.665 161.178C250.953 160.65 251.097 160.026 251.097 159.306V156.876C250.785 157.548 250.287 158.106 249.603 158.55C248.931 158.982 248.133 159.198 247.209 159.198C246.309 159.198 245.499 158.988 244.779 158.568C244.071 158.148 243.513 157.554 243.105 156.786C242.709 156.018 242.511 155.13 242.511 154.122C242.511 153.114 242.709 152.232 243.105 151.476C243.513 150.708 244.071 150.12 244.779 149.712C245.499 149.292 246.309 149.082 247.209 149.082ZM251.097 154.14C251.097 153.348 250.935 152.652 250.611 152.052C250.287 151.452 249.843 150.99 249.279 150.666C248.727 150.342 248.115 150.18 247.443 150.18C246.747 150.18 246.123 150.336 245.571 150.648C245.019 150.96 244.581 151.416 244.257 152.016C243.945 152.604 243.789 153.306 243.789 154.122C243.789 154.926 243.945 155.634 244.257 156.246C244.581 156.846 245.019 157.308 245.571 157.632C246.123 157.944 246.747 158.1 247.443 158.1C248.115 158.1 248.727 157.938 249.279 157.614C249.843 157.29 250.287 156.828 250.611 156.228C250.935 155.628 251.097 154.932 251.097 154.14ZM264.126 153.636C264.126 154.068 264.114 154.398 264.09 154.626H255.936C255.972 155.37 256.152 156.006 256.476 156.534C256.8 157.062 257.226 157.464 257.754 157.74C258.282 158.004 258.858 158.136 259.482 158.136C260.298 158.136 260.982 157.938 261.534 157.542C262.098 157.146 262.47 156.612 262.65 155.94H263.982C263.742 156.9 263.226 157.686 262.434 158.298C261.654 158.898 260.67 159.198 259.482 159.198C258.558 159.198 257.73 158.994 256.998 158.586C256.266 158.166 255.69 157.578 255.27 156.822C254.862 156.054 254.658 155.16 254.658 154.14C254.658 153.12 254.862 152.226 255.27 151.458C255.678 150.69 256.248 150.102 256.98 149.694C257.712 149.286 258.546 149.082 259.482 149.082C260.418 149.082 261.234 149.286 261.93 149.694C262.638 150.102 263.178 150.654 263.55 151.35C263.934 152.034 264.126 152.796 264.126 153.636ZM262.848 153.6C262.86 152.868 262.71 152.244 262.398 151.728C262.098 151.212 261.684 150.822 261.156 150.558C260.628 150.294 260.052 150.162 259.428 150.162C258.492 150.162 257.694 150.462 257.034 151.062C256.374 151.662 256.008 152.508 255.936 153.6H262.848Z" fill="#858585"/>
<path d="M215.418 122.581V109.635M215.418 109.635V96.6895M215.418 109.635H228.364M215.418 109.635H202.473" stroke="black" stroke-width="2" stroke-linecap="round"/>
<path d="M377.186 0.25H406C411.664 0.25 415.887 0.250531 419.134 0.687111C422.374 1.12272 424.605 1.98833 426.308 3.6915C428.012 5.39466 428.877 7.62601 429.313 10.866C429.749 14.1133 429.75 18.3361 429.75 24V52.8144H400.936C395.272 52.8144 391.049 52.8138 387.802 52.3772C384.562 51.9416 382.33 51.076 380.627 49.3729C378.924 47.6697 378.058 45.4383 377.623 42.1983C377.186 38.9511 377.186 34.7283 377.186 29.0644V0.25Z" fill="white" stroke="#C4C4C4" stroke-width="0.5"/>
<path fill-rule="evenodd" clip-rule="evenodd" d="M414.506 16.128C414.729 16.3513 414.729 16.7133 414.506 16.9366L404.904 26.5382L414.506 36.1398C414.729 36.3631 414.729 36.7251 414.506 36.9484C414.283 37.1717 413.921 37.1717 413.697 36.9484L404.096 27.3468L394.494 36.9484C394.271 37.1717 393.909 37.1717 393.685 36.9484C393.462 36.7251 393.462 36.3631 393.685 36.1398L403.287 26.5382L393.685 16.9366C393.462 16.7133 393.462 16.3513 393.685 16.128C393.909 15.9047 394.271 15.9047 394.494 16.128L404.096 25.7296L413.697 16.128C413.921 15.9047 414.283 15.9047 414.506 16.128Z" fill="black"/>
</svg>
