<svg width="26" height="25" viewBox="0 0 26 25" fill="none" xmlns="http://www.w3.org/2000/svg">
<path  d="M0.962485 24.4158L2.6128 18.3516C1.12021 15.7899 0.611006 12.7725 1.18026 9.86282C1.74952 6.95315 3.35831 4.35012 5.70626 2.53977C8.05421 0.729425 10.9808 -0.164483 13.9396 0.0249579C16.8983 0.214399 19.687 1.47424 21.7849 3.56924C23.8828 5.66424 25.1465 8.45119 25.3401 11.4097C25.5336 14.3682 24.6437 17.296 22.8366 19.6465C21.0295 21.9969 18.4287 23.6093 15.5199 24.1826C12.611 24.7559 9.59288 24.2508 7.0291 22.7618L0.962485 24.4158ZM8.76364 6.48203C8.60601 6.49182 8.45198 6.53333 8.31078 6.60409C8.17837 6.67908 8.05749 6.77282 7.95191 6.8824C7.83467 6.99705 7.72804 7.12207 7.63332 7.25592C7.18218 7.84304 6.93952 8.56374 6.94366 9.30416C6.95597 9.90092 7.09319 10.4885 7.34647 11.0289C7.94295 12.2785 8.75722 13.4119 9.75114 14.376C10.0124 14.636 10.2675 14.8972 10.5421 15.1401C11.889 16.3259 13.494 17.181 15.2294 17.6375L15.924 17.7437C16.1503 17.75 16.3768 17.7447 16.6026 17.7279C16.9581 17.7095 17.3053 17.6132 17.6194 17.4459C17.8221 17.3385 17.9173 17.2848 18.0869 17.1773C18.0869 17.1773 18.1394 17.1432 18.2395 17.0675C18.3847 16.9634 18.5196 16.8457 18.6423 16.7159C18.7468 16.6084 18.8334 16.4847 18.8987 16.3497C19.0155 16.0633 19.0927 15.7623 19.1282 15.455C19.1483 15.3041 19.154 15.1517 19.1452 14.9997C19.1367 14.9307 19.111 14.865 19.0705 14.8085C19.0299 14.7519 18.9759 14.7065 18.9133 14.6762L18.2029 14.3576C18.2029 14.3576 17.1409 13.895 16.494 13.5996C16.4256 13.5699 16.3524 13.5529 16.2779 13.5496C16.1944 13.541 16.11 13.5504 16.0305 13.5771C15.9509 13.6039 15.8779 13.6473 15.8165 13.7046C15.4719 14.0674 15.1459 14.4475 14.84 14.8435C14.7894 14.9115 14.7196 14.963 14.6396 14.9912C14.5596 15.0195 14.473 15.0233 14.3908 15.0021C14.3113 14.9809 14.2334 14.954 14.1577 14.9216C14.0063 14.8581 13.9538 14.8337 13.8501 14.7885H13.844C13.1457 14.4836 12.4991 14.0718 11.9276 13.5679C11.7738 13.4336 11.6309 13.2871 11.4845 13.1455C11.0038 12.6833 10.5852 12.1606 10.2394 11.5904L10.1674 11.4684C10.117 11.3922 10.076 11.3103 10.0453 11.2242C10.0333 11.1682 10.0337 11.1101 10.0466 11.0542C10.0595 10.9983 10.0844 10.946 10.1198 10.9008C10.1198 10.9008 10.4164 10.5761 10.5543 10.4003C10.6692 10.2542 10.7763 10.1022 10.8754 9.94501C10.944 9.85238 10.9901 9.74496 11.0098 9.63135C11.0295 9.51774 11.0224 9.40108 10.9889 9.29074C10.652 8.45582 10.3 7.62537 9.93302 6.7994C9.88313 6.71412 9.81354 6.64203 9.73008 6.58915C9.64663 6.53627 9.55172 6.50415 9.45331 6.49546C9.38739 6.48813 9.32148 6.48081 9.25556 6.47592C9.09295 6.4663 8.92991 6.4663 8.7673 6.47592L8.76364 6.48203Z" fill="#FDCD4C"/>
</svg>
